solid OpenSCAD_Model
  facet normal 0 0.471399 -0.88192
    outer loop
      vertex 29 -2.78658 -3.1194
      vertex 47 -1.92215 -2.65735
      vertex 47 -2.78658 -3.1194
    endloop
  endfacet
  facet normal 0 0.471399 -0.88192
    outer loop
      vertex 47 -1.92215 -2.65735
      vertex 29 -2.78658 -3.1194
      vertex 29 -1.92215 -2.65735
    endloop
  endfacet
  facet normal 0 0.881921 -0.471397
    outer loop
      vertex 47 -0.542652 -1.27785
      vertex 29 -0.0806028 -0.413417
      vertex 47 -0.0806028 -0.413417
    endloop
  endfacet
  facet normal 0 0.881921 -0.471397
    outer loop
      vertex 29 -0.0806028 -0.413417
      vertex 47 -0.542652 -1.27785
      vertex 29 -0.542652 -1.27785
    endloop
  endfacet
  facet normal 0 0.773007 0.634397
    outer loop
      vertex 47 -0.542652 4.27785
      vertex 29 -1.16447 5.03553
      vertex 47 -1.16447 5.03553
    endloop
  endfacet
  facet normal 0 0.773007 0.634397
    outer loop
      vertex 29 -1.16447 5.03553
      vertex 47 -0.542652 4.27785
      vertex 29 -0.542652 4.27785
    endloop
  endfacet
  facet normal 0 0.634398 -0.773006
    outer loop
      vertex 29 -1.92215 -2.65735
      vertex 47 -1.16447 -2.03553
      vertex 47 -1.92215 -2.65735
    endloop
  endfacet
  facet normal 0 0.634398 -0.773006
    outer loop
      vertex 47 -1.16447 -2.03553
      vertex 29 -1.92215 -2.65735
      vertex 29 -1.16447 -2.03553
    endloop
  endfacet
  facet normal 0 0.0980137 -0.995185
    outer loop
      vertex 29 -4.7 -3.5
      vertex 47 -3.72455 -3.40393
      vertex 47 -4.7 -3.5
    endloop
  endfacet
  facet normal 0 0.0980137 -0.995185
    outer loop
      vertex 47 -3.72455 -3.40393
      vertex 29 -4.7 -3.5
      vertex 29 -3.72455 -3.40393
    endloop
  endfacet
  facet normal 0 -0.88192 0.471399
    outer loop
      vertex 29 -9.3194 3.41342
      vertex 47 -8.85735 4.27785
      vertex 29 -8.85735 4.27785
    endloop
  endfacet
  facet normal 0 -0.88192 0.471399
    outer loop
      vertex 47 -8.85735 4.27785
      vertex 29 -9.3194 3.41342
      vertex 47 -9.3194 3.41342
    endloop
  endfacet
  facet normal -0 0.634398 0.773006
    outer loop
      vertex 29 -1.16447 5.03553
      vertex 47 -1.92215 5.65735
      vertex 47 -1.16447 5.03553
    endloop
  endfacet
  facet normal 0 0.634398 0.773006
    outer loop
      vertex 47 -1.92215 5.65735
      vertex 29 -1.16447 5.03553
      vertex 29 -1.92215 5.65735
    endloop
  endfacet
  facet normal 1 0 0
    outer loop
      vertex 47 -0.542652 4.27785
      vertex 47 0 3
      vertex 47 -0.0806028 3.41342
    endloop
  endfacet
  facet normal 1 0 0
    outer loop
      vertex 47 -0.0806028 3.41342
      vertex 47 0 3
      vertex 47 0.0448058 3
    endloop
  endfacet
  facet normal 1 -0 0
    outer loop
      vertex 47 0 0
      vertex 47 -0.0806028 -0.413417
      vertex 47 0.0448058 0
    endloop
  endfacet
  facet normal 1 0 0
    outer loop
      vertex 47 -1.16447 5.03553
      vertex 47 0 3
      vertex 47 -0.542652 4.27785
    endloop
  endfacet
  facet normal 1 0 0
    outer loop
      vertex 47 -1.92215 5.65735
      vertex 47 0 3
      vertex 47 -1.16447 5.03553
    endloop
  endfacet
  facet normal 1 0 0
    outer loop
      vertex 47 0 0
      vertex 47 -0.542652 -1.27785
      vertex 47 -0.0806028 -0.413417
    endloop
  endfacet
  facet normal 1 0 0
    outer loop
      vertex 47 -2.78658 6.1194
      vertex 47 0 3
      vertex 47 -1.92215 5.65735
    endloop
  endfacet
  facet normal 1 0 0
    outer loop
      vertex 47 0 0
      vertex 47 -1.16447 -2.03553
      vertex 47 -0.542652 -1.27785
    endloop
  endfacet
  facet normal 1 0 0
    outer loop
      vertex 47 -3.72455 6.40393
      vertex 47 0 3
      vertex 47 -2.78658 6.1194
    endloop
  endfacet
  facet normal 1 0 0
    outer loop
      vertex 47 0 0
      vertex 47 -1.92215 -2.65735
      vertex 47 -1.16447 -2.03553
    endloop
  endfacet
  facet normal 1 0 0
    outer loop
      vertex 47 -4.7 6.5
      vertex 47 0 3
      vertex 47 -3.72455 6.40393
    endloop
  endfacet
  facet normal 1 0 0
    outer loop
      vertex 47 0 0
      vertex 47 -2.78658 -3.1194
      vertex 47 -1.92215 -2.65735
    endloop
  endfacet
  facet normal 1 -0 0
    outer loop
      vertex 47 -5.67545 6.40393
      vertex 47 0 3
      vertex 47 -4.7 6.5
    endloop
  endfacet
  facet normal 1 0 0
    outer loop
      vertex 47 0 0
      vertex 47 -3.72455 -3.40393
      vertex 47 -2.78658 -3.1194
    endloop
  endfacet
  facet normal 1 -0 0
    outer loop
      vertex 47 -6.61342 6.1194
      vertex 47 0 3
      vertex 47 -5.67545 6.40393
    endloop
  endfacet
  facet normal 1 0 0
    outer loop
      vertex 47 0 0
      vertex 47 -4.7 -3.5
      vertex 47 -3.72455 -3.40393
    endloop
  endfacet
  facet normal 1 0 0
    outer loop
      vertex 47 0 3
      vertex 47 -6.61342 6.1194
      vertex 47 0 0
    endloop
  endfacet
  facet normal 1 0 0
    outer loop
      vertex 47 0 0
      vertex 47 -5.67545 -3.40393
      vertex 47 -4.7 -3.5
    endloop
  endfacet
  facet normal 1 0 0
    outer loop
      vertex 47 -6.61342 -3.1194
      vertex 47 0 0
      vertex 47 -6.61342 6.1194
    endloop
  endfacet
  facet normal 1 0 0
    outer loop
      vertex 47 0 0
      vertex 47 -6.61342 -3.1194
      vertex 47 -5.67545 -3.40393
    endloop
  endfacet
  facet normal 1 -0 0
    outer loop
      vertex 47 -7.47785 5.65735
      vertex 47 -6.61342 -3.1194
      vertex 47 -6.61342 6.1194
    endloop
  endfacet
  facet normal 1 0 0
    outer loop
      vertex 47 -7.47785 5.65735
      vertex 47 -7.47785 -2.65735
      vertex 47 -6.61342 -3.1194
    endloop
  endfacet
  facet normal 1 -0 0
    outer loop
      vertex 47 -8.23553 5.03553
      vertex 47 -7.47785 -2.65735
      vertex 47 -7.47785 5.65735
    endloop
  endfacet
  facet normal 1 0 0
    outer loop
      vertex 47 -8.23553 5.03553
      vertex 47 -8.23553 -2.03553
      vertex 47 -7.47785 -2.65735
    endloop
  endfacet
  facet normal 1 -0 0
    outer loop
      vertex 47 -8.85735 4.27785
      vertex 47 -8.23553 -2.03553
      vertex 47 -8.23553 5.03553
    endloop
  endfacet
  facet normal 1 0 0
    outer loop
      vertex 47 -8.85735 4.27785
      vertex 47 -8.85735 -1.27785
      vertex 47 -8.23553 -2.03553
    endloop
  endfacet
  facet normal 1 -0 0
    outer loop
      vertex 47 -9.3194 3.41342
      vertex 47 -8.85735 -1.27785
      vertex 47 -8.85735 4.27785
    endloop
  endfacet
  facet normal 1 0 0
    outer loop
      vertex 47 -9.3194 3.41342
      vertex 47 -9.3194 -0.413417
      vertex 47 -8.85735 -1.27785
    endloop
  endfacet
  facet normal 1 -0 0
    outer loop
      vertex 47 -9.60393 2.47545
      vertex 47 -9.3194 -0.413417
      vertex 47 -9.3194 3.41342
    endloop
  endfacet
  facet normal 1 0 0
    outer loop
      vertex 47 -9.60393 2.47545
      vertex 47 -9.60393 0.524549
      vertex 47 -9.3194 -0.413417
    endloop
  endfacet
  facet normal 1 0 -0
    outer loop
      vertex 47 -9.60393 0.524549
      vertex 47 -9.60393 2.47545
      vertex 47 -9.7 1.5
    endloop
  endfacet
  facet normal 0 -0.634398 0.773006
    outer loop
      vertex 29 -7.47785 5.65735
      vertex 47 -8.23553 5.03553
      vertex 47 -7.47785 5.65735
    endloop
  endfacet
  facet normal 0 -0.634398 0.773006
    outer loop
      vertex 47 -8.23553 5.03553
      vertex 29 -7.47785 5.65735
      vertex 29 -8.23553 5.03553
    endloop
  endfacet
  facet normal 0 -0.471399 0.88192
    outer loop
      vertex 29 -6.61342 6.1194
      vertex 47 -7.47785 5.65735
      vertex 47 -6.61342 6.1194
    endloop
  endfacet
  facet normal 0 -0.471399 0.88192
    outer loop
      vertex 47 -7.47785 5.65735
      vertex 29 -6.61342 6.1194
      vertex 29 -7.47785 5.65735
    endloop
  endfacet
  facet normal 0 -0.471399 -0.88192
    outer loop
      vertex 29 -7.47785 -2.65735
      vertex 47 -6.61342 -3.1194
      vertex 47 -7.47785 -2.65735
    endloop
  endfacet
  facet normal -0 -0.471399 -0.88192
    outer loop
      vertex 47 -6.61342 -3.1194
      vertex 29 -7.47785 -2.65735
      vertex 29 -6.61342 -3.1194
    endloop
  endfacet
  facet normal 0 0.956941 0.290283
    outer loop
      vertex 47 0.0448058 3
      vertex 29 -0.0806028 3.41342
      vertex 47 -0.0806028 3.41342
    endloop
  endfacet
  facet normal 0 0.956941 0.290283
    outer loop
      vertex 29 -0.0806028 3.41342
      vertex 47 0.0448058 3
      vertex 29 0.0448058 3
    endloop
  endfacet
  facet normal 0 -0.95694 -0.290286
    outer loop
      vertex 29 -9.3194 -0.413417
      vertex 47 -9.60393 0.524549
      vertex 29 -9.60393 0.524549
    endloop
  endfacet
  facet normal 0 -0.95694 -0.290286
    outer loop
      vertex 47 -9.60393 0.524549
      vertex 29 -9.3194 -0.413417
      vertex 47 -9.3194 -0.413417
    endloop
  endfacet
  facet normal 0 0.773007 -0.634397
    outer loop
      vertex 47 -1.16447 -2.03553
      vertex 29 -0.542652 -1.27785
      vertex 47 -0.542652 -1.27785
    endloop
  endfacet
  facet normal 0 0.773007 -0.634397
    outer loop
      vertex 29 -0.542652 -1.27785
      vertex 47 -1.16447 -2.03553
      vertex 29 -1.16447 -2.03553
    endloop
  endfacet
  facet normal 0 -0.773006 -0.634398
    outer loop
      vertex 29 -8.23553 -2.03553
      vertex 47 -8.85735 -1.27785
      vertex 29 -8.85735 -1.27785
    endloop
  endfacet
  facet normal 0 -0.773006 -0.634398
    outer loop
      vertex 47 -8.85735 -1.27785
      vertex 29 -8.23553 -2.03553
      vertex 47 -8.23553 -2.03553
    endloop
  endfacet
  facet normal 0 -0.0980137 0.995185
    outer loop
      vertex 29 -4.7 6.5
      vertex 47 -5.67545 6.40393
      vertex 47 -4.7 6.5
    endloop
  endfacet
  facet normal 0 -0.0980137 0.995185
    outer loop
      vertex 47 -5.67545 6.40393
      vertex 29 -4.7 6.5
      vertex 29 -5.67545 6.40393
    endloop
  endfacet
  facet normal 0 -0.881921 -0.471397
    outer loop
      vertex 29 -8.85735 -1.27785
      vertex 47 -9.3194 -0.413417
      vertex 29 -9.3194 -0.413417
    endloop
  endfacet
  facet normal 0 -0.881921 -0.471397
    outer loop
      vertex 47 -9.3194 -0.413417
      vertex 29 -8.85735 -1.27785
      vertex 47 -8.85735 -1.27785
    endloop
  endfacet
  facet normal 0 -0.773006 0.634398
    outer loop
      vertex 29 -8.85735 4.27785
      vertex 47 -8.23553 5.03553
      vertex 29 -8.23553 5.03553
    endloop
  endfacet
  facet normal 0 -0.773006 0.634398
    outer loop
      vertex 47 -8.23553 5.03553
      vertex 29 -8.85735 4.27785
      vertex 47 -8.85735 4.27785
    endloop
  endfacet
  facet normal 0 -0.634398 -0.773006
    outer loop
      vertex 29 -8.23553 -2.03553
      vertex 47 -7.47785 -2.65735
      vertex 47 -8.23553 -2.03553
    endloop
  endfacet
  facet normal -0 -0.634398 -0.773006
    outer loop
      vertex 47 -7.47785 -2.65735
      vertex 29 -8.23553 -2.03553
      vertex 29 -7.47785 -2.65735
    endloop
  endfacet
  facet normal 0 0.290285 -0.95694
    outer loop
      vertex 29 -3.72455 -3.40393
      vertex 47 -2.78658 -3.1194
      vertex 47 -3.72455 -3.40393
    endloop
  endfacet
  facet normal 0 0.290285 -0.95694
    outer loop
      vertex 47 -2.78658 -3.1194
      vertex 29 -3.72455 -3.40393
      vertex 29 -2.78658 -3.1194
    endloop
  endfacet
  facet normal 0 -0.290285 0.95694
    outer loop
      vertex 29 -5.67545 6.40393
      vertex 47 -6.61342 6.1194
      vertex 47 -5.67545 6.40393
    endloop
  endfacet
  facet normal 0 -0.290285 0.95694
    outer loop
      vertex 47 -6.61342 6.1194
      vertex 29 -5.67545 6.40393
      vertex 29 -6.61342 6.1194
    endloop
  endfacet
  facet normal -0 0.0980137 0.995185
    outer loop
      vertex 29 -3.72455 6.40393
      vertex 47 -4.7 6.5
      vertex 47 -3.72455 6.40393
    endloop
  endfacet
  facet normal 0 0.0980137 0.995185
    outer loop
      vertex 47 -4.7 6.5
      vertex 29 -3.72455 6.40393
      vertex 29 -4.7 6.5
    endloop
  endfacet
  facet normal 0 0.881921 0.471398
    outer loop
      vertex 47 -0.0806028 3.41342
      vertex 29 -0.542652 4.27785
      vertex 47 -0.542652 4.27785
    endloop
  endfacet
  facet normal 0 0.881921 0.471398
    outer loop
      vertex 29 -0.542652 4.27785
      vertex 47 -0.0806028 3.41342
      vertex 29 -0.0806028 3.41342
    endloop
  endfacet
  facet normal 0 0.95694 -0.290285
    outer loop
      vertex 47 -0.0806028 -0.413417
      vertex 29 0.0448058 0
      vertex 47 0.0448058 0
    endloop
  endfacet
  facet normal 0 0.95694 -0.290285
    outer loop
      vertex 29 0.0448058 0
      vertex 47 -0.0806028 -0.413417
      vertex 29 -0.0806028 -0.413417
    endloop
  endfacet
  facet normal -0 0.290285 0.95694
    outer loop
      vertex 29 -2.78658 6.1194
      vertex 47 -3.72455 6.40393
      vertex 47 -2.78658 6.1194
    endloop
  endfacet
  facet normal 0 0.290285 0.95694
    outer loop
      vertex 47 -3.72455 6.40393
      vertex 29 -2.78658 6.1194
      vertex 29 -3.72455 6.40393
    endloop
  endfacet
  facet normal 0 -0.995185 -0.0980136
    outer loop
      vertex 29 -9.60393 0.524549
      vertex 47 -9.7 1.5
      vertex 29 -9.7 1.5
    endloop
  endfacet
  facet normal 0 -0.995185 -0.0980136
    outer loop
      vertex 47 -9.7 1.5
      vertex 29 -9.60393 0.524549
      vertex 47 -9.60393 0.524549
    endloop
  endfacet
  facet normal -1 0 0
    outer loop
      vertex 29 -2.92465 0.475
      vertex 29 0 0
      vertex 29 -0.0806028 -0.413417
    endloop
  endfacet
  facet normal -1 0 0
    outer loop
      vertex 29 -0.0806028 -0.413417
      vertex 29 0 0
      vertex 29 0.0448058 0
    endloop
  endfacet
  facet normal -1 0 0
    outer loop
      vertex 29 0 3
      vertex 29 -0.0806028 3.41342
      vertex 29 0.0448058 3
    endloop
  endfacet
  facet normal -1 0 0
    outer loop
      vertex 29 0 0
      vertex 29 -2.65 1.5
      vertex 29 0 3
    endloop
  endfacet
  facet normal -1 0 0
    outer loop
      vertex 29 -2.92465 0.475
      vertex 29 -0.0806028 -0.413417
      vertex 29 -0.542652 -1.27785
    endloop
  endfacet
  facet normal -1 0 0
    outer loop
      vertex 29 -2.71985 2.03058
      vertex 29 0 3
      vertex 29 -2.65 1.5
    endloop
  endfacet
  facet normal -1 0 0
    outer loop
      vertex 29 -3.25043 0.0504313
      vertex 29 -0.542652 -1.27785
      vertex 29 -1.16447 -2.03553
    endloop
  endfacet
  facet normal -1 0 0
    outer loop
      vertex 29 -2.92465 2.525
      vertex 29 0 3
      vertex 29 -2.71985 2.03058
    endloop
  endfacet
  facet normal -1 0 0
    outer loop
      vertex 29 -3.25043 0.0504313
      vertex 29 -1.16447 -2.03553
      vertex 29 -1.92215 -2.65735
    endloop
  endfacet
  facet normal -1 -0 0
    outer loop
      vertex 29 0 3
      vertex 29 -2.92465 2.525
      vertex 29 -0.0806028 3.41342
    endloop
  endfacet
  facet normal -1 -0 0
    outer loop
      vertex 29 -0.0806028 3.41342
      vertex 29 -2.92465 2.525
      vertex 29 -0.542652 4.27785
    endloop
  endfacet
  facet normal -1 0 0
    outer loop
      vertex 29 0 0
      vertex 29 -2.71985 0.969421
      vertex 29 -2.65 1.5
    endloop
  endfacet
  facet normal -1 0 0
    outer loop
      vertex 29 -3.675 -0.275352
      vertex 29 -1.92215 -2.65735
      vertex 29 -2.78658 -3.1194
    endloop
  endfacet
  facet normal -1 0 0
    outer loop
      vertex 29 0 0
      vertex 29 -2.92465 0.475
      vertex 29 -2.71985 0.969421
    endloop
  endfacet
  facet normal -1 0 0
    outer loop
      vertex 29 -0.542652 -1.27785
      vertex 29 -3.25043 0.0504313
      vertex 29 -2.92465 0.475
    endloop
  endfacet
  facet normal -1 0 0
    outer loop
      vertex 29 -1.92215 -2.65735
      vertex 29 -3.675 -0.275352
      vertex 29 -3.25043 0.0504313
    endloop
  endfacet
  facet normal -1 0 0
    outer loop
      vertex 29 -4.16942 -0.480147
      vertex 29 -2.78658 -3.1194
      vertex 29 -3.72455 -3.40393
    endloop
  endfacet
  facet normal -1 0 0
    outer loop
      vertex 29 -2.78658 -3.1194
      vertex 29 -4.16942 -0.480147
      vertex 29 -3.675 -0.275352
    endloop
  endfacet
  facet normal -1 0 0
    outer loop
      vertex 29 -4.7 -0.549999
      vertex 29 -3.72455 -3.40393
      vertex 29 -4.7 -3.5
    endloop
  endfacet
  facet normal -1 0 0
    outer loop
      vertex 29 -3.72455 -3.40393
      vertex 29 -4.7 -0.549999
      vertex 29 -4.16942 -0.480147
    endloop
  endfacet
  facet normal -1 0 0
    outer loop
      vertex 29 -5.67545 -3.40393
      vertex 29 -4.7 -0.549999
      vertex 29 -4.7 -3.5
    endloop
  endfacet
  facet normal -1 -0 0
    outer loop
      vertex 29 -4.7 -0.549999
      vertex 29 -5.67545 -3.40393
      vertex 29 -5.23058 -0.480147
    endloop
  endfacet
  facet normal -1 0 0
    outer loop
      vertex 29 -6.61342 -3.1194
      vertex 29 -5.23058 -0.480147
      vertex 29 -5.67545 -3.40393
    endloop
  endfacet
  facet normal -1 -0 0
    outer loop
      vertex 29 -5.23058 -0.480147
      vertex 29 -6.61342 -3.1194
      vertex 29 -5.725 -0.275352
    endloop
  endfacet
  facet normal -1 0 0
    outer loop
      vertex 29 -7.47785 -2.65735
      vertex 29 -5.725 -0.275352
      vertex 29 -6.61342 -3.1194
    endloop
  endfacet
  facet normal -1 -0 0
    outer loop
      vertex 29 -5.725 -0.275352
      vertex 29 -7.47785 -2.65735
      vertex 29 -6.14957 0.0504313
    endloop
  endfacet
  facet normal -1 0 0
    outer loop
      vertex 29 -8.23553 -2.03553
      vertex 29 -6.14957 0.0504313
      vertex 29 -7.47785 -2.65735
    endloop
  endfacet
  facet normal -1 0 0
    outer loop
      vertex 29 -8.85735 -1.27785
      vertex 29 -6.14957 0.0504313
      vertex 29 -8.23553 -2.03553
    endloop
  endfacet
  facet normal -1 -0 0
    outer loop
      vertex 29 -6.14957 0.0504313
      vertex 29 -8.85735 -1.27785
      vertex 29 -6.47535 0.475
    endloop
  endfacet
  facet normal -1 0 0
    outer loop
      vertex 29 -3.25043 2.94957
      vertex 29 -0.542652 4.27785
      vertex 29 -2.92465 2.525
    endloop
  endfacet
  facet normal -1 -0 0
    outer loop
      vertex 29 -0.542652 4.27785
      vertex 29 -3.25043 2.94957
      vertex 29 -1.16447 5.03553
    endloop
  endfacet
  facet normal -1 -0 0
    outer loop
      vertex 29 -1.16447 5.03553
      vertex 29 -3.25043 2.94957
      vertex 29 -1.92215 5.65735
    endloop
  endfacet
  facet normal -1 0 0
    outer loop
      vertex 29 -3.675 3.27535
      vertex 29 -1.92215 5.65735
      vertex 29 -3.25043 2.94957
    endloop
  endfacet
  facet normal -1 -0 0
    outer loop
      vertex 29 -1.92215 5.65735
      vertex 29 -3.675 3.27535
      vertex 29 -2.78658 6.1194
    endloop
  endfacet
  facet normal -1 0 0
    outer loop
      vertex 29 -4.16942 3.48015
      vertex 29 -2.78658 6.1194
      vertex 29 -3.675 3.27535
    endloop
  endfacet
  facet normal -1 -0 0
    outer loop
      vertex 29 -2.78658 6.1194
      vertex 29 -4.16942 3.48015
      vertex 29 -3.72455 6.40393
    endloop
  endfacet
  facet normal -1 0 0
    outer loop
      vertex 29 -4.7 3.55
      vertex 29 -3.72455 6.40393
      vertex 29 -4.16942 3.48015
    endloop
  endfacet
  facet normal -1 0 0
    outer loop
      vertex 29 -4.7 3.55
      vertex 29 -4.7 6.5
      vertex 29 -3.72455 6.40393
    endloop
  endfacet
  facet normal -1 0 0
    outer loop
      vertex 29 -5.67545 6.40393
      vertex 29 -4.7 3.55
      vertex 29 -5.23058 3.48015
    endloop
  endfacet
  facet normal -1 0 0
    outer loop
      vertex 29 -4.7 3.55
      vertex 29 -5.67545 6.40393
      vertex 29 -4.7 6.5
    endloop
  endfacet
  facet normal -1 0 0
    outer loop
      vertex 29 -6.61342 6.1194
      vertex 29 -5.23058 3.48015
      vertex 29 -5.725 3.27535
    endloop
  endfacet
  facet normal -1 0 0
    outer loop
      vertex 29 -7.47785 5.65735
      vertex 29 -5.725 3.27535
      vertex 29 -6.14957 2.94957
    endloop
  endfacet
  facet normal -1 0 0
    outer loop
      vertex 29 -8.85735 4.27785
      vertex 29 -6.14957 2.94957
      vertex 29 -6.47535 2.525
    endloop
  endfacet
  facet normal -1 0 0
    outer loop
      vertex 29 -5.23058 3.48015
      vertex 29 -6.61342 6.1194
      vertex 29 -5.67545 6.40393
    endloop
  endfacet
  facet normal -1 0 0
    outer loop
      vertex 29 -9.3194 3.41342
      vertex 29 -6.47535 2.525
      vertex 29 -6.68015 2.03058
    endloop
  endfacet
  facet normal -1 0 0
    outer loop
      vertex 29 -9.60393 2.47545
      vertex 29 -6.68015 2.03058
      vertex 29 -6.75 1.5
    endloop
  endfacet
  facet normal -1 0 0
    outer loop
      vertex 29 -9.3194 -0.413417
      vertex 29 -6.47535 0.475
      vertex 29 -8.85735 -1.27785
    endloop
  endfacet
  facet normal -1 0 0
    outer loop
      vertex 29 -5.725 3.27535
      vertex 29 -7.47785 5.65735
      vertex 29 -6.61342 6.1194
    endloop
  endfacet
  facet normal -1 -0 0
    outer loop
      vertex 29 -6.47535 0.475
      vertex 29 -9.3194 -0.413417
      vertex 29 -6.68015 0.969421
    endloop
  endfacet
  facet normal -1 0 0
    outer loop
      vertex 29 -6.14957 2.94957
      vertex 29 -8.23553 5.03553
      vertex 29 -7.47785 5.65735
    endloop
  endfacet
  facet normal -1 0 0
    outer loop
      vertex 29 -9.60393 0.524549
      vertex 29 -6.68015 0.969421
      vertex 29 -9.3194 -0.413417
    endloop
  endfacet
  facet normal -1 0 0
    outer loop
      vertex 29 -6.14957 2.94957
      vertex 29 -8.85735 4.27785
      vertex 29 -8.23553 5.03553
    endloop
  endfacet
  facet normal -1 -0 0
    outer loop
      vertex 29 -6.68015 0.969421
      vertex 29 -9.60393 0.524549
      vertex 29 -6.75 1.5
    endloop
  endfacet
  facet normal -1 0 0
    outer loop
      vertex 29 -6.47535 2.525
      vertex 29 -9.3194 3.41342
      vertex 29 -8.85735 4.27785
    endloop
  endfacet
  facet normal -1 0 0
    outer loop
      vertex 29 -9.7 1.5
      vertex 29 -6.75 1.5
      vertex 29 -9.60393 0.524549
    endloop
  endfacet
  facet normal -1 0 0
    outer loop
      vertex 29 -6.68015 2.03058
      vertex 29 -9.60393 2.47545
      vertex 29 -9.3194 3.41342
    endloop
  endfacet
  facet normal -1 0 0
    outer loop
      vertex 29 -6.75 1.5
      vertex 29 -9.7 1.5
      vertex 29 -9.60393 2.47545
    endloop
  endfacet
  facet normal -0 0.471399 0.88192
    outer loop
      vertex 29 -1.92215 5.65735
      vertex 47 -2.78658 6.1194
      vertex 47 -1.92215 5.65735
    endloop
  endfacet
  facet normal 0 0.471399 0.88192
    outer loop
      vertex 47 -2.78658 6.1194
      vertex 29 -1.92215 5.65735
      vertex 29 -2.78658 6.1194
    endloop
  endfacet
  facet normal 0 -0.290285 -0.95694
    outer loop
      vertex 29 -6.61342 -3.1194
      vertex 47 -5.67545 -3.40393
      vertex 47 -6.61342 -3.1194
    endloop
  endfacet
  facet normal -0 -0.290285 -0.95694
    outer loop
      vertex 47 -5.67545 -3.40393
      vertex 29 -6.61342 -3.1194
      vertex 29 -5.67545 -3.40393
    endloop
  endfacet
  facet normal 0 -0.0980137 -0.995185
    outer loop
      vertex 29 -5.67545 -3.40393
      vertex 47 -4.7 -3.5
      vertex 47 -5.67545 -3.40393
    endloop
  endfacet
  facet normal -0 -0.0980137 -0.995185
    outer loop
      vertex 47 -4.7 -3.5
      vertex 29 -5.67545 -3.40393
      vertex 29 -4.7 -3.5
    endloop
  endfacet
  facet normal 0 -0.95694 0.290285
    outer loop
      vertex 29 -9.60393 2.47545
      vertex 47 -9.3194 3.41342
      vertex 29 -9.3194 3.41342
    endloop
  endfacet
  facet normal 0 -0.95694 0.290285
    outer loop
      vertex 47 -9.3194 3.41342
      vertex 29 -9.60393 2.47545
      vertex 47 -9.60393 2.47545
    endloop
  endfacet
  facet normal 0 -0.995185 0.0980137
    outer loop
      vertex 29 -9.7 1.5
      vertex 47 -9.60393 2.47545
      vertex 29 -9.60393 2.47545
    endloop
  endfacet
  facet normal 0 -0.995185 0.0980137
    outer loop
      vertex 47 -9.60393 2.47545
      vertex 29 -9.7 1.5
      vertex 47 -9.7 1.5
    endloop
  endfacet
  facet normal 0 -0.608761 0.793354
    outer loop
      vertex 29 -3.25043 0.0504313
      vertex 39 -3.675 -0.275352
      vertex 39 -3.25043 0.0504313
    endloop
  endfacet
  facet normal 0 -0.608761 0.793354
    outer loop
      vertex 39 -3.675 -0.275352
      vertex 29 -3.25043 0.0504313
      vertex 29 -3.675 -0.275352
    endloop
  endfacet
  facet normal -0 0.608761 0.793354
    outer loop
      vertex 29 -5.725 -0.275352
      vertex 39 -6.14957 0.0504313
      vertex 39 -5.725 -0.275352
    endloop
  endfacet
  facet normal 0 0.608761 0.793354
    outer loop
      vertex 39 -6.14957 0.0504313
      vertex 29 -5.725 -0.275352
      vertex 29 -6.14957 0.0504313
    endloop
  endfacet
  facet normal 0 0.608757 -0.793357
    outer loop
      vertex 29 -6.14957 2.94957
      vertex 39 -5.725 3.27535
      vertex 39 -6.14957 2.94957
    endloop
  endfacet
  facet normal 0 0.608757 -0.793357
    outer loop
      vertex 39 -5.725 3.27535
      vertex 29 -6.14957 2.94957
      vertex 29 -5.725 3.27535
    endloop
  endfacet
  facet normal 0 -0.793356 0.608758
    outer loop
      vertex 29 -3.25043 0.0504313
      vertex 39 -2.92465 0.475
      vertex 29 -2.92465 0.475
    endloop
  endfacet
  facet normal 0 -0.793356 0.608758
    outer loop
      vertex 39 -2.92465 0.475
      vertex 29 -3.25043 0.0504313
      vertex 39 -3.25043 0.0504313
    endloop
  endfacet
  facet normal 0 -0.793357 -0.608757
    outer loop
      vertex 29 -2.92465 2.525
      vertex 39 -3.25043 2.94957
      vertex 29 -3.25043 2.94957
    endloop
  endfacet
  facet normal 0 -0.793357 -0.608757
    outer loop
      vertex 39 -3.25043 2.94957
      vertex 29 -2.92465 2.525
      vertex 39 -2.92465 2.525
    endloop
  endfacet
  facet normal 0 0.382691 -0.923877
    outer loop
      vertex 29 -5.725 3.27535
      vertex 39 -5.23058 3.48015
      vertex 39 -5.725 3.27535
    endloop
  endfacet
  facet normal 0 0.382691 -0.923877
    outer loop
      vertex 39 -5.23058 3.48015
      vertex 29 -5.725 3.27535
      vertex 29 -5.23058 3.48015
    endloop
  endfacet
  facet normal 0 -0.130526 0.991445
    outer loop
      vertex 29 -4.16942 -0.480147
      vertex 39 -4.7 -0.549999
      vertex 39 -4.16942 -0.480147
    endloop
  endfacet
  facet normal 0 -0.130526 0.991445
    outer loop
      vertex 39 -4.7 -0.549999
      vertex 29 -4.16942 -0.480147
      vertex 29 -4.7 -0.549999
    endloop
  endfacet
  facet normal -0 0.130526 0.991445
    outer loop
      vertex 29 -4.7 -0.549999
      vertex 39 -5.23058 -0.480147
      vertex 39 -4.7 -0.549999
    endloop
  endfacet
  facet normal 0 0.130526 0.991445
    outer loop
      vertex 39 -5.23058 -0.480147
      vertex 29 -4.7 -0.549999
      vertex 29 -5.23058 -0.480147
    endloop
  endfacet
  facet normal 0 0.991445 -0.130522
    outer loop
      vertex 39 -6.75 1.5
      vertex 29 -6.68015 2.03058
      vertex 39 -6.68015 2.03058
    endloop
  endfacet
  facet normal 0 0.991445 -0.130522
    outer loop
      vertex 29 -6.68015 2.03058
      vertex 39 -6.75 1.5
      vertex 29 -6.75 1.5
    endloop
  endfacet
  facet normal 0 -0.991445 0.130522
    outer loop
      vertex 29 -2.71985 0.969421
      vertex 39 -2.65 1.5
      vertex 29 -2.65 1.5
    endloop
  endfacet
  facet normal 0 -0.991445 0.130522
    outer loop
      vertex 39 -2.65 1.5
      vertex 29 -2.71985 0.969421
      vertex 39 -2.71985 0.969421
    endloop
  endfacet
  facet normal 0 0.923877 -0.382691
    outer loop
      vertex 39 -6.68015 2.03058
      vertex 29 -6.47535 2.525
      vertex 39 -6.47535 2.525
    endloop
  endfacet
  facet normal 0 0.923877 -0.382691
    outer loop
      vertex 29 -6.47535 2.525
      vertex 39 -6.68015 2.03058
      vertex 29 -6.68015 2.03058
    endloop
  endfacet
  facet normal 0 -0.923877 0.38269
    outer loop
      vertex 29 -2.92465 0.475
      vertex 39 -2.71985 0.969421
      vertex 29 -2.71985 0.969421
    endloop
  endfacet
  facet normal 0 -0.923877 0.38269
    outer loop
      vertex 39 -2.71985 0.969421
      vertex 29 -2.92465 0.475
      vertex 39 -2.92465 0.475
    endloop
  endfacet
  facet normal 0 -0.608757 -0.793357
    outer loop
      vertex 29 -3.675 3.27535
      vertex 39 -3.25043 2.94957
      vertex 39 -3.675 3.27535
    endloop
  endfacet
  facet normal -0 -0.608757 -0.793357
    outer loop
      vertex 39 -3.25043 2.94957
      vertex 29 -3.675 3.27535
      vertex 29 -3.25043 2.94957
    endloop
  endfacet
  facet normal -0 0.382683 0.92388
    outer loop
      vertex 29 -5.23058 -0.480147
      vertex 39 -5.725 -0.275352
      vertex 39 -5.23058 -0.480147
    endloop
  endfacet
  facet normal 0 0.382683 0.92388
    outer loop
      vertex 39 -5.725 -0.275352
      vertex 29 -5.23058 -0.480147
      vertex 29 -5.725 -0.275352
    endloop
  endfacet
  facet normal 0 0.923877 0.38269
    outer loop
      vertex 39 -6.47535 0.475
      vertex 29 -6.68015 0.969421
      vertex 39 -6.68015 0.969421
    endloop
  endfacet
  facet normal 0 0.923877 0.38269
    outer loop
      vertex 29 -6.68015 0.969421
      vertex 39 -6.47535 0.475
      vertex 29 -6.47535 0.475
    endloop
  endfacet
  facet normal 0 0.130522 -0.991445
    outer loop
      vertex 29 -5.23058 3.48015
      vertex 39 -4.7 3.55
      vertex 39 -5.23058 3.48015
    endloop
  endfacet
  facet normal 0 0.130522 -0.991445
    outer loop
      vertex 39 -4.7 3.55
      vertex 29 -5.23058 3.48015
      vertex 29 -4.7 3.55
    endloop
  endfacet
  facet normal 0 -0.923877 -0.382691
    outer loop
      vertex 29 -2.71985 2.03058
      vertex 39 -2.92465 2.525
      vertex 29 -2.92465 2.525
    endloop
  endfacet
  facet normal 0 -0.923877 -0.382691
    outer loop
      vertex 39 -2.92465 2.525
      vertex 29 -2.71985 2.03058
      vertex 39 -2.71985 2.03058
    endloop
  endfacet
  facet normal 0 0.793356 0.608758
    outer loop
      vertex 39 -6.14957 0.0504313
      vertex 29 -6.47535 0.475
      vertex 39 -6.47535 0.475
    endloop
  endfacet
  facet normal 0 0.793356 0.608758
    outer loop
      vertex 29 -6.47535 0.475
      vertex 39 -6.14957 0.0504313
      vertex 29 -6.14957 0.0504313
    endloop
  endfacet
  facet normal 0 -0.991445 -0.130522
    outer loop
      vertex 29 -2.65 1.5
      vertex 39 -2.71985 2.03058
      vertex 29 -2.71985 2.03058
    endloop
  endfacet
  facet normal 0 -0.991445 -0.130522
    outer loop
      vertex 39 -2.71985 2.03058
      vertex 29 -2.65 1.5
      vertex 39 -2.65 1.5
    endloop
  endfacet
  facet normal 0 -0.382683 0.92388
    outer loop
      vertex 29 -3.675 -0.275352
      vertex 39 -4.16942 -0.480147
      vertex 39 -3.675 -0.275352
    endloop
  endfacet
  facet normal 0 -0.382683 0.92388
    outer loop
      vertex 39 -4.16942 -0.480147
      vertex 29 -3.675 -0.275352
      vertex 29 -4.16942 -0.480147
    endloop
  endfacet
  facet normal 0 0.793357 -0.608757
    outer loop
      vertex 39 -6.47535 2.525
      vertex 29 -6.14957 2.94957
      vertex 39 -6.14957 2.94957
    endloop
  endfacet
  facet normal 0 0.793357 -0.608757
    outer loop
      vertex 29 -6.14957 2.94957
      vertex 39 -6.47535 2.525
      vertex 29 -6.47535 2.525
    endloop
  endfacet
  facet normal 0 -0.130522 -0.991445
    outer loop
      vertex 29 -4.7 3.55
      vertex 39 -4.16942 3.48015
      vertex 39 -4.7 3.55
    endloop
  endfacet
  facet normal -0 -0.130522 -0.991445
    outer loop
      vertex 39 -4.16942 3.48015
      vertex 29 -4.7 3.55
      vertex 29 -4.16942 3.48015
    endloop
  endfacet
  facet normal 0 0.991445 0.130522
    outer loop
      vertex 39 -6.68015 0.969421
      vertex 29 -6.75 1.5
      vertex 39 -6.75 1.5
    endloop
  endfacet
  facet normal 0 0.991445 0.130522
    outer loop
      vertex 29 -6.75 1.5
      vertex 39 -6.68015 0.969421
      vertex 29 -6.68015 0.969421
    endloop
  endfacet
  facet normal -1 0 0
    outer loop
      vertex 39 -2.71985 0.969421
      vertex 39 -2.71985 2.03058
      vertex 39 -2.65 1.5
    endloop
  endfacet
  facet normal -1 0 0
    outer loop
      vertex 39 -2.92465 0.475
      vertex 39 -2.71985 2.03058
      vertex 39 -2.71985 0.969421
    endloop
  endfacet
  facet normal -1 0 0
    outer loop
      vertex 39 -2.92465 0.475
      vertex 39 -2.92465 2.525
      vertex 39 -2.71985 2.03058
    endloop
  endfacet
  facet normal -1 0 0
    outer loop
      vertex 39 -3.25043 0.0504313
      vertex 39 -2.92465 2.525
      vertex 39 -2.92465 0.475
    endloop
  endfacet
  facet normal -1 0 0
    outer loop
      vertex 39 -3.25043 0.0504313
      vertex 39 -3.25043 2.94957
      vertex 39 -2.92465 2.525
    endloop
  endfacet
  facet normal -1 0 0
    outer loop
      vertex 39 -3.675 -0.275352
      vertex 39 -3.25043 2.94957
      vertex 39 -3.25043 0.0504313
    endloop
  endfacet
  facet normal -1 0 0
    outer loop
      vertex 39 -3.675 -0.275352
      vertex 39 -3.675 3.27535
      vertex 39 -3.25043 2.94957
    endloop
  endfacet
  facet normal -1 0 0
    outer loop
      vertex 39 -4.16942 -0.480147
      vertex 39 -3.675 3.27535
      vertex 39 -3.675 -0.275352
    endloop
  endfacet
  facet normal -1 0 0
    outer loop
      vertex 39 -4.16942 -0.480147
      vertex 39 -4.16942 3.48015
      vertex 39 -3.675 3.27535
    endloop
  endfacet
  facet normal -1 0 0
    outer loop
      vertex 39 -4.7 -0.549999
      vertex 39 -4.16942 3.48015
      vertex 39 -4.16942 -0.480147
    endloop
  endfacet
  facet normal -1 0 0
    outer loop
      vertex 39 -4.7 -0.549999
      vertex 39 -4.7 3.55
      vertex 39 -4.16942 3.48015
    endloop
  endfacet
  facet normal -1 0 0
    outer loop
      vertex 39 -5.23058 -0.480147
      vertex 39 -4.7 3.55
      vertex 39 -4.7 -0.549999
    endloop
  endfacet
  facet normal -1 0 0
    outer loop
      vertex 39 -5.23058 -0.480147
      vertex 39 -5.23058 3.48015
      vertex 39 -4.7 3.55
    endloop
  endfacet
  facet normal -1 0 0
    outer loop
      vertex 39 -5.725 -0.275352
      vertex 39 -5.23058 3.48015
      vertex 39 -5.23058 -0.480147
    endloop
  endfacet
  facet normal -1 0 0
    outer loop
      vertex 39 -5.725 -0.275352
      vertex 39 -5.725 3.27535
      vertex 39 -5.23058 3.48015
    endloop
  endfacet
  facet normal -1 0 0
    outer loop
      vertex 39 -6.14957 0.0504313
      vertex 39 -5.725 3.27535
      vertex 39 -5.725 -0.275352
    endloop
  endfacet
  facet normal -1 0 0
    outer loop
      vertex 39 -6.14957 0.0504313
      vertex 39 -6.14957 2.94957
      vertex 39 -5.725 3.27535
    endloop
  endfacet
  facet normal -1 0 0
    outer loop
      vertex 39 -6.47535 0.475
      vertex 39 -6.14957 2.94957
      vertex 39 -6.14957 0.0504313
    endloop
  endfacet
  facet normal -1 0 0
    outer loop
      vertex 39 -6.47535 0.475
      vertex 39 -6.47535 2.525
      vertex 39 -6.14957 2.94957
    endloop
  endfacet
  facet normal -1 0 0
    outer loop
      vertex 39 -6.68015 0.969421
      vertex 39 -6.47535 2.525
      vertex 39 -6.47535 0.475
    endloop
  endfacet
  facet normal -1 0 0
    outer loop
      vertex 39 -6.68015 0.969421
      vertex 39 -6.68015 2.03058
      vertex 39 -6.47535 2.525
    endloop
  endfacet
  facet normal -1 0 -0
    outer loop
      vertex 39 -6.68015 2.03058
      vertex 39 -6.68015 0.969421
      vertex 39 -6.75 1.5
    endloop
  endfacet
  facet normal 0 -0.382691 -0.923877
    outer loop
      vertex 29 -4.16942 3.48015
      vertex 39 -3.675 3.27535
      vertex 39 -4.16942 3.48015
    endloop
  endfacet
  facet normal -0 -0.382691 -0.923877
    outer loop
      vertex 39 -3.675 3.27535
      vertex 29 -4.16942 3.48015
      vertex 29 -3.675 3.27535
    endloop
  endfacet
  facet normal 0 0.471399 -0.88192
    outer loop
      vertex 73 -2.78658 -3.1194
      vertex 91 -1.92215 -2.65735
      vertex 91 -2.78658 -3.1194
    endloop
  endfacet
  facet normal 0 0.471399 -0.88192
    outer loop
      vertex 91 -1.92215 -2.65735
      vertex 73 -2.78658 -3.1194
      vertex 73 -1.92215 -2.65735
    endloop
  endfacet
  facet normal 0 0.881921 -0.471397
    outer loop
      vertex 91 -0.542652 -1.27785
      vertex 73 -0.0806028 -0.413417
      vertex 91 -0.0806028 -0.413417
    endloop
  endfacet
  facet normal 0 0.881921 -0.471397
    outer loop
      vertex 73 -0.0806028 -0.413417
      vertex 91 -0.542652 -1.27785
      vertex 73 -0.542652 -1.27785
    endloop
  endfacet
  facet normal 0 0.773007 0.634397
    outer loop
      vertex 91 -0.542652 4.27785
      vertex 73 -1.16447 5.03553
      vertex 91 -1.16447 5.03553
    endloop
  endfacet
  facet normal 0 0.773007 0.634397
    outer loop
      vertex 73 -1.16447 5.03553
      vertex 91 -0.542652 4.27785
      vertex 73 -0.542652 4.27785
    endloop
  endfacet
  facet normal 0 0.634398 -0.773006
    outer loop
      vertex 73 -1.92215 -2.65735
      vertex 91 -1.16447 -2.03553
      vertex 91 -1.92215 -2.65735
    endloop
  endfacet
  facet normal 0 0.634398 -0.773006
    outer loop
      vertex 91 -1.16447 -2.03553
      vertex 73 -1.92215 -2.65735
      vertex 73 -1.16447 -2.03553
    endloop
  endfacet
  facet normal 0 0.0980137 -0.995185
    outer loop
      vertex 73 -4.7 -3.5
      vertex 91 -3.72455 -3.40393
      vertex 91 -4.7 -3.5
    endloop
  endfacet
  facet normal 0 0.0980137 -0.995185
    outer loop
      vertex 91 -3.72455 -3.40393
      vertex 73 -4.7 -3.5
      vertex 73 -3.72455 -3.40393
    endloop
  endfacet
  facet normal 0 -0.88192 0.471399
    outer loop
      vertex 73 -9.3194 3.41342
      vertex 91 -8.85735 4.27785
      vertex 73 -8.85735 4.27785
    endloop
  endfacet
  facet normal 0 -0.88192 0.471399
    outer loop
      vertex 91 -8.85735 4.27785
      vertex 73 -9.3194 3.41342
      vertex 91 -9.3194 3.41342
    endloop
  endfacet
  facet normal -0 0.634398 0.773006
    outer loop
      vertex 73 -1.16447 5.03553
      vertex 91 -1.92215 5.65735
      vertex 91 -1.16447 5.03553
    endloop
  endfacet
  facet normal 0 0.634398 0.773006
    outer loop
      vertex 91 -1.92215 5.65735
      vertex 73 -1.16447 5.03553
      vertex 73 -1.92215 5.65735
    endloop
  endfacet
  facet normal 1 0 0
    outer loop
      vertex 91 -0.542652 4.27785
      vertex 91 0 3
      vertex 91 -0.0806028 3.41342
    endloop
  endfacet
  facet normal 1 0 0
    outer loop
      vertex 91 -0.0806028 3.41342
      vertex 91 0 3
      vertex 91 0.0448058 3
    endloop
  endfacet
  facet normal 1 -0 0
    outer loop
      vertex 91 0 0
      vertex 91 -0.0806028 -0.413417
      vertex 91 0.0448058 0
    endloop
  endfacet
  facet normal 1 0 0
    outer loop
      vertex 91 -1.16447 5.03553
      vertex 91 0 3
      vertex 91 -0.542652 4.27785
    endloop
  endfacet
  facet normal 1 0 0
    outer loop
      vertex 91 -1.92215 5.65735
      vertex 91 0 3
      vertex 91 -1.16447 5.03553
    endloop
  endfacet
  facet normal 1 0 0
    outer loop
      vertex 91 0 0
      vertex 91 -0.542652 -1.27785
      vertex 91 -0.0806028 -0.413417
    endloop
  endfacet
  facet normal 1 0 0
    outer loop
      vertex 91 -2.78658 6.1194
      vertex 91 0 3
      vertex 91 -1.92215 5.65735
    endloop
  endfacet
  facet normal 1 0 0
    outer loop
      vertex 91 0 0
      vertex 91 -1.16447 -2.03553
      vertex 91 -0.542652 -1.27785
    endloop
  endfacet
  facet normal 1 0 0
    outer loop
      vertex 91 -3.72455 6.40393
      vertex 91 0 3
      vertex 91 -2.78658 6.1194
    endloop
  endfacet
  facet normal 1 0 0
    outer loop
      vertex 91 0 0
      vertex 91 -1.92215 -2.65735
      vertex 91 -1.16447 -2.03553
    endloop
  endfacet
  facet normal 1 0 0
    outer loop
      vertex 91 -4.7 6.5
      vertex 91 0 3
      vertex 91 -3.72455 6.40393
    endloop
  endfacet
  facet normal 1 0 0
    outer loop
      vertex 91 0 0
      vertex 91 -2.78658 -3.1194
      vertex 91 -1.92215 -2.65735
    endloop
  endfacet
  facet normal 1 -0 0
    outer loop
      vertex 91 -5.67545 6.40393
      vertex 91 0 3
      vertex 91 -4.7 6.5
    endloop
  endfacet
  facet normal 1 0 0
    outer loop
      vertex 91 0 0
      vertex 91 -3.72455 -3.40393
      vertex 91 -2.78658 -3.1194
    endloop
  endfacet
  facet normal 1 -0 0
    outer loop
      vertex 91 -6.61342 6.1194
      vertex 91 0 3
      vertex 91 -5.67545 6.40393
    endloop
  endfacet
  facet normal 1 0 0
    outer loop
      vertex 91 0 0
      vertex 91 -4.7 -3.5
      vertex 91 -3.72455 -3.40393
    endloop
  endfacet
  facet normal 1 0 0
    outer loop
      vertex 91 0 3
      vertex 91 -6.61342 6.1194
      vertex 91 0 0
    endloop
  endfacet
  facet normal 1 0 0
    outer loop
      vertex 91 0 0
      vertex 91 -5.67545 -3.40393
      vertex 91 -4.7 -3.5
    endloop
  endfacet
  facet normal 1 0 0
    outer loop
      vertex 91 -6.61342 -3.1194
      vertex 91 0 0
      vertex 91 -6.61342 6.1194
    endloop
  endfacet
  facet normal 1 0 0
    outer loop
      vertex 91 0 0
      vertex 91 -6.61342 -3.1194
      vertex 91 -5.67545 -3.40393
    endloop
  endfacet
  facet normal 1 -0 0
    outer loop
      vertex 91 -7.47785 5.65735
      vertex 91 -6.61342 -3.1194
      vertex 91 -6.61342 6.1194
    endloop
  endfacet
  facet normal 1 0 0
    outer loop
      vertex 91 -7.47785 5.65735
      vertex 91 -7.47785 -2.65735
      vertex 91 -6.61342 -3.1194
    endloop
  endfacet
  facet normal 1 -0 0
    outer loop
      vertex 91 -8.23553 5.03553
      vertex 91 -7.47785 -2.65735
      vertex 91 -7.47785 5.65735
    endloop
  endfacet
  facet normal 1 0 0
    outer loop
      vertex 91 -8.23553 5.03553
      vertex 91 -8.23553 -2.03553
      vertex 91 -7.47785 -2.65735
    endloop
  endfacet
  facet normal 1 -0 0
    outer loop
      vertex 91 -8.85735 4.27785
      vertex 91 -8.23553 -2.03553
      vertex 91 -8.23553 5.03553
    endloop
  endfacet
  facet normal 1 0 0
    outer loop
      vertex 91 -8.85735 4.27785
      vertex 91 -8.85735 -1.27785
      vertex 91 -8.23553 -2.03553
    endloop
  endfacet
  facet normal 1 -0 0
    outer loop
      vertex 91 -9.3194 3.41342
      vertex 91 -8.85735 -1.27785
      vertex 91 -8.85735 4.27785
    endloop
  endfacet
  facet normal 1 0 0
    outer loop
      vertex 91 -9.3194 3.41342
      vertex 91 -9.3194 -0.413417
      vertex 91 -8.85735 -1.27785
    endloop
  endfacet
  facet normal 1 -0 0
    outer loop
      vertex 91 -9.60393 2.47545
      vertex 91 -9.3194 -0.413417
      vertex 91 -9.3194 3.41342
    endloop
  endfacet
  facet normal 1 0 0
    outer loop
      vertex 91 -9.60393 2.47545
      vertex 91 -9.60393 0.524549
      vertex 91 -9.3194 -0.413417
    endloop
  endfacet
  facet normal 1 0 -0
    outer loop
      vertex 91 -9.60393 0.524549
      vertex 91 -9.60393 2.47545
      vertex 91 -9.7 1.5
    endloop
  endfacet
  facet normal 0 -0.634398 0.773006
    outer loop
      vertex 73 -7.47785 5.65735
      vertex 91 -8.23553 5.03553
      vertex 91 -7.47785 5.65735
    endloop
  endfacet
  facet normal 0 -0.634398 0.773006
    outer loop
      vertex 91 -8.23553 5.03553
      vertex 73 -7.47785 5.65735
      vertex 73 -8.23553 5.03553
    endloop
  endfacet
  facet normal 0 -0.471399 0.88192
    outer loop
      vertex 73 -6.61342 6.1194
      vertex 91 -7.47785 5.65735
      vertex 91 -6.61342 6.1194
    endloop
  endfacet
  facet normal 0 -0.471399 0.88192
    outer loop
      vertex 91 -7.47785 5.65735
      vertex 73 -6.61342 6.1194
      vertex 73 -7.47785 5.65735
    endloop
  endfacet
  facet normal 0 -0.471399 -0.88192
    outer loop
      vertex 73 -7.47785 -2.65735
      vertex 91 -6.61342 -3.1194
      vertex 91 -7.47785 -2.65735
    endloop
  endfacet
  facet normal -0 -0.471399 -0.88192
    outer loop
      vertex 91 -6.61342 -3.1194
      vertex 73 -7.47785 -2.65735
      vertex 73 -6.61342 -3.1194
    endloop
  endfacet
  facet normal 0 0.956941 0.290283
    outer loop
      vertex 91 0.0448058 3
      vertex 73 -0.0806028 3.41342
      vertex 91 -0.0806028 3.41342
    endloop
  endfacet
  facet normal 0 0.956941 0.290283
    outer loop
      vertex 73 -0.0806028 3.41342
      vertex 91 0.0448058 3
      vertex 73 0.0448058 3
    endloop
  endfacet
  facet normal 0 -0.95694 -0.290286
    outer loop
      vertex 73 -9.3194 -0.413417
      vertex 91 -9.60393 0.524549
      vertex 73 -9.60393 0.524549
    endloop
  endfacet
  facet normal 0 -0.95694 -0.290286
    outer loop
      vertex 91 -9.60393 0.524549
      vertex 73 -9.3194 -0.413417
      vertex 91 -9.3194 -0.413417
    endloop
  endfacet
  facet normal 0 0.773007 -0.634397
    outer loop
      vertex 91 -1.16447 -2.03553
      vertex 73 -0.542652 -1.27785
      vertex 91 -0.542652 -1.27785
    endloop
  endfacet
  facet normal 0 0.773007 -0.634397
    outer loop
      vertex 73 -0.542652 -1.27785
      vertex 91 -1.16447 -2.03553
      vertex 73 -1.16447 -2.03553
    endloop
  endfacet
  facet normal 0 -0.773006 -0.634398
    outer loop
      vertex 73 -8.23553 -2.03553
      vertex 91 -8.85735 -1.27785
      vertex 73 -8.85735 -1.27785
    endloop
  endfacet
  facet normal 0 -0.773006 -0.634398
    outer loop
      vertex 91 -8.85735 -1.27785
      vertex 73 -8.23553 -2.03553
      vertex 91 -8.23553 -2.03553
    endloop
  endfacet
  facet normal 0 -0.0980137 0.995185
    outer loop
      vertex 73 -4.7 6.5
      vertex 91 -5.67545 6.40393
      vertex 91 -4.7 6.5
    endloop
  endfacet
  facet normal 0 -0.0980137 0.995185
    outer loop
      vertex 91 -5.67545 6.40393
      vertex 73 -4.7 6.5
      vertex 73 -5.67545 6.40393
    endloop
  endfacet
  facet normal 0 -0.881921 -0.471397
    outer loop
      vertex 73 -8.85735 -1.27785
      vertex 91 -9.3194 -0.413417
      vertex 73 -9.3194 -0.413417
    endloop
  endfacet
  facet normal 0 -0.881921 -0.471397
    outer loop
      vertex 91 -9.3194 -0.413417
      vertex 73 -8.85735 -1.27785
      vertex 91 -8.85735 -1.27785
    endloop
  endfacet
  facet normal 0 -0.773006 0.634398
    outer loop
      vertex 73 -8.85735 4.27785
      vertex 91 -8.23553 5.03553
      vertex 73 -8.23553 5.03553
    endloop
  endfacet
  facet normal 0 -0.773006 0.634398
    outer loop
      vertex 91 -8.23553 5.03553
      vertex 73 -8.85735 4.27785
      vertex 91 -8.85735 4.27785
    endloop
  endfacet
  facet normal 0 -0.634398 -0.773006
    outer loop
      vertex 73 -8.23553 -2.03553
      vertex 91 -7.47785 -2.65735
      vertex 91 -8.23553 -2.03553
    endloop
  endfacet
  facet normal -0 -0.634398 -0.773006
    outer loop
      vertex 91 -7.47785 -2.65735
      vertex 73 -8.23553 -2.03553
      vertex 73 -7.47785 -2.65735
    endloop
  endfacet
  facet normal 0 0.290285 -0.95694
    outer loop
      vertex 73 -3.72455 -3.40393
      vertex 91 -2.78658 -3.1194
      vertex 91 -3.72455 -3.40393
    endloop
  endfacet
  facet normal 0 0.290285 -0.95694
    outer loop
      vertex 91 -2.78658 -3.1194
      vertex 73 -3.72455 -3.40393
      vertex 73 -2.78658 -3.1194
    endloop
  endfacet
  facet normal 0 -0.290285 0.95694
    outer loop
      vertex 73 -5.67545 6.40393
      vertex 91 -6.61342 6.1194
      vertex 91 -5.67545 6.40393
    endloop
  endfacet
  facet normal 0 -0.290285 0.95694
    outer loop
      vertex 91 -6.61342 6.1194
      vertex 73 -5.67545 6.40393
      vertex 73 -6.61342 6.1194
    endloop
  endfacet
  facet normal -0 0.0980137 0.995185
    outer loop
      vertex 73 -3.72455 6.40393
      vertex 91 -4.7 6.5
      vertex 91 -3.72455 6.40393
    endloop
  endfacet
  facet normal 0 0.0980137 0.995185
    outer loop
      vertex 91 -4.7 6.5
      vertex 73 -3.72455 6.40393
      vertex 73 -4.7 6.5
    endloop
  endfacet
  facet normal 0 0.881921 0.471398
    outer loop
      vertex 91 -0.0806028 3.41342
      vertex 73 -0.542652 4.27785
      vertex 91 -0.542652 4.27785
    endloop
  endfacet
  facet normal 0 0.881921 0.471398
    outer loop
      vertex 73 -0.542652 4.27785
      vertex 91 -0.0806028 3.41342
      vertex 73 -0.0806028 3.41342
    endloop
  endfacet
  facet normal 0 0.95694 -0.290285
    outer loop
      vertex 91 -0.0806028 -0.413417
      vertex 73 0.0448058 0
      vertex 91 0.0448058 0
    endloop
  endfacet
  facet normal 0 0.95694 -0.290285
    outer loop
      vertex 73 0.0448058 0
      vertex 91 -0.0806028 -0.413417
      vertex 73 -0.0806028 -0.413417
    endloop
  endfacet
  facet normal -0 0.290285 0.95694
    outer loop
      vertex 73 -2.78658 6.1194
      vertex 91 -3.72455 6.40393
      vertex 91 -2.78658 6.1194
    endloop
  endfacet
  facet normal 0 0.290285 0.95694
    outer loop
      vertex 91 -3.72455 6.40393
      vertex 73 -2.78658 6.1194
      vertex 73 -3.72455 6.40393
    endloop
  endfacet
  facet normal 0 -0.995185 -0.0980136
    outer loop
      vertex 73 -9.60393 0.524549
      vertex 91 -9.7 1.5
      vertex 73 -9.7 1.5
    endloop
  endfacet
  facet normal 0 -0.995185 -0.0980136
    outer loop
      vertex 91 -9.7 1.5
      vertex 73 -9.60393 0.524549
      vertex 91 -9.60393 0.524549
    endloop
  endfacet
  facet normal -1 0 0
    outer loop
      vertex 73 -2.92465 0.475
      vertex 73 0 0
      vertex 73 -0.0806028 -0.413417
    endloop
  endfacet
  facet normal -1 0 0
    outer loop
      vertex 73 -0.0806028 -0.413417
      vertex 73 0 0
      vertex 73 0.0448058 0
    endloop
  endfacet
  facet normal -1 0 0
    outer loop
      vertex 73 0 3
      vertex 73 -0.0806028 3.41342
      vertex 73 0.0448058 3
    endloop
  endfacet
  facet normal -1 0 0
    outer loop
      vertex 73 0 0
      vertex 73 -2.65 1.5
      vertex 73 0 3
    endloop
  endfacet
  facet normal -1 0 0
    outer loop
      vertex 73 -2.92465 0.475
      vertex 73 -0.0806028 -0.413417
      vertex 73 -0.542652 -1.27785
    endloop
  endfacet
  facet normal -1 0 0
    outer loop
      vertex 73 -2.71985 2.03058
      vertex 73 0 3
      vertex 73 -2.65 1.5
    endloop
  endfacet
  facet normal -1 0 0
    outer loop
      vertex 73 -3.25043 0.0504313
      vertex 73 -0.542652 -1.27785
      vertex 73 -1.16447 -2.03553
    endloop
  endfacet
  facet normal -1 0 0
    outer loop
      vertex 73 -2.92465 2.525
      vertex 73 0 3
      vertex 73 -2.71985 2.03058
    endloop
  endfacet
  facet normal -1 0 0
    outer loop
      vertex 73 -3.25043 0.0504313
      vertex 73 -1.16447 -2.03553
      vertex 73 -1.92215 -2.65735
    endloop
  endfacet
  facet normal -1 -0 0
    outer loop
      vertex 73 0 3
      vertex 73 -2.92465 2.525
      vertex 73 -0.0806028 3.41342
    endloop
  endfacet
  facet normal -1 -0 0
    outer loop
      vertex 73 -0.0806028 3.41342
      vertex 73 -2.92465 2.525
      vertex 73 -0.542652 4.27785
    endloop
  endfacet
  facet normal -1 0 0
    outer loop
      vertex 73 0 0
      vertex 73 -2.71985 0.969421
      vertex 73 -2.65 1.5
    endloop
  endfacet
  facet normal -1 0 0
    outer loop
      vertex 73 -3.675 -0.275352
      vertex 73 -1.92215 -2.65735
      vertex 73 -2.78658 -3.1194
    endloop
  endfacet
  facet normal -1 0 0
    outer loop
      vertex 73 0 0
      vertex 73 -2.92465 0.475
      vertex 73 -2.71985 0.969421
    endloop
  endfacet
  facet normal -1 0 0
    outer loop
      vertex 73 -0.542652 -1.27785
      vertex 73 -3.25043 0.0504313
      vertex 73 -2.92465 0.475
    endloop
  endfacet
  facet normal -1 0 0
    outer loop
      vertex 73 -1.92215 -2.65735
      vertex 73 -3.675 -0.275352
      vertex 73 -3.25043 0.0504313
    endloop
  endfacet
  facet normal -1 0 0
    outer loop
      vertex 73 -4.16942 -0.480147
      vertex 73 -2.78658 -3.1194
      vertex 73 -3.72455 -3.40393
    endloop
  endfacet
  facet normal -1 0 0
    outer loop
      vertex 73 -2.78658 -3.1194
      vertex 73 -4.16942 -0.480147
      vertex 73 -3.675 -0.275352
    endloop
  endfacet
  facet normal -1 0 0
    outer loop
      vertex 73 -4.7 -0.549999
      vertex 73 -3.72455 -3.40393
      vertex 73 -4.7 -3.5
    endloop
  endfacet
  facet normal -1 0 0
    outer loop
      vertex 73 -3.72455 -3.40393
      vertex 73 -4.7 -0.549999
      vertex 73 -4.16942 -0.480147
    endloop
  endfacet
  facet normal -1 0 0
    outer loop
      vertex 73 -5.67545 -3.40393
      vertex 73 -4.7 -0.549999
      vertex 73 -4.7 -3.5
    endloop
  endfacet
  facet normal -1 -0 0
    outer loop
      vertex 73 -4.7 -0.549999
      vertex 73 -5.67545 -3.40393
      vertex 73 -5.23058 -0.480147
    endloop
  endfacet
  facet normal -1 0 0
    outer loop
      vertex 73 -6.61342 -3.1194
      vertex 73 -5.23058 -0.480147
      vertex 73 -5.67545 -3.40393
    endloop
  endfacet
  facet normal -1 -0 0
    outer loop
      vertex 73 -5.23058 -0.480147
      vertex 73 -6.61342 -3.1194
      vertex 73 -5.725 -0.275352
    endloop
  endfacet
  facet normal -1 0 0
    outer loop
      vertex 73 -7.47785 -2.65735
      vertex 73 -5.725 -0.275352
      vertex 73 -6.61342 -3.1194
    endloop
  endfacet
  facet normal -1 -0 0
    outer loop
      vertex 73 -5.725 -0.275352
      vertex 73 -7.47785 -2.65735
      vertex 73 -6.14957 0.0504313
    endloop
  endfacet
  facet normal -1 0 0
    outer loop
      vertex 73 -8.23553 -2.03553
      vertex 73 -6.14957 0.0504313
      vertex 73 -7.47785 -2.65735
    endloop
  endfacet
  facet normal -1 0 0
    outer loop
      vertex 73 -8.85735 -1.27785
      vertex 73 -6.14957 0.0504313
      vertex 73 -8.23553 -2.03553
    endloop
  endfacet
  facet normal -1 -0 0
    outer loop
      vertex 73 -6.14957 0.0504313
      vertex 73 -8.85735 -1.27785
      vertex 73 -6.47535 0.475
    endloop
  endfacet
  facet normal -1 0 0
    outer loop
      vertex 73 -3.25043 2.94957
      vertex 73 -0.542652 4.27785
      vertex 73 -2.92465 2.525
    endloop
  endfacet
  facet normal -1 -0 0
    outer loop
      vertex 73 -0.542652 4.27785
      vertex 73 -3.25043 2.94957
      vertex 73 -1.16447 5.03553
    endloop
  endfacet
  facet normal -1 -0 0
    outer loop
      vertex 73 -1.16447 5.03553
      vertex 73 -3.25043 2.94957
      vertex 73 -1.92215 5.65735
    endloop
  endfacet
  facet normal -1 0 0
    outer loop
      vertex 73 -3.675 3.27535
      vertex 73 -1.92215 5.65735
      vertex 73 -3.25043 2.94957
    endloop
  endfacet
  facet normal -1 -0 0
    outer loop
      vertex 73 -1.92215 5.65735
      vertex 73 -3.675 3.27535
      vertex 73 -2.78658 6.1194
    endloop
  endfacet
  facet normal -1 0 0
    outer loop
      vertex 73 -4.16942 3.48015
      vertex 73 -2.78658 6.1194
      vertex 73 -3.675 3.27535
    endloop
  endfacet
  facet normal -1 -0 0
    outer loop
      vertex 73 -2.78658 6.1194
      vertex 73 -4.16942 3.48015
      vertex 73 -3.72455 6.40393
    endloop
  endfacet
  facet normal -1 0 0
    outer loop
      vertex 73 -4.7 3.55
      vertex 73 -3.72455 6.40393
      vertex 73 -4.16942 3.48015
    endloop
  endfacet
  facet normal -1 0 0
    outer loop
      vertex 73 -4.7 3.55
      vertex 73 -4.7 6.5
      vertex 73 -3.72455 6.40393
    endloop
  endfacet
  facet normal -1 0 0
    outer loop
      vertex 73 -5.67545 6.40393
      vertex 73 -4.7 3.55
      vertex 73 -5.23058 3.48015
    endloop
  endfacet
  facet normal -1 0 0
    outer loop
      vertex 73 -4.7 3.55
      vertex 73 -5.67545 6.40393
      vertex 73 -4.7 6.5
    endloop
  endfacet
  facet normal -1 0 0
    outer loop
      vertex 73 -6.61342 6.1194
      vertex 73 -5.23058 3.48015
      vertex 73 -5.725 3.27535
    endloop
  endfacet
  facet normal -1 0 0
    outer loop
      vertex 73 -7.47785 5.65735
      vertex 73 -5.725 3.27535
      vertex 73 -6.14957 2.94957
    endloop
  endfacet
  facet normal -1 0 0
    outer loop
      vertex 73 -8.85735 4.27785
      vertex 73 -6.14957 2.94957
      vertex 73 -6.47535 2.525
    endloop
  endfacet
  facet normal -1 0 0
    outer loop
      vertex 73 -5.23058 3.48015
      vertex 73 -6.61342 6.1194
      vertex 73 -5.67545 6.40393
    endloop
  endfacet
  facet normal -1 0 0
    outer loop
      vertex 73 -9.3194 3.41342
      vertex 73 -6.47535 2.525
      vertex 73 -6.68015 2.03058
    endloop
  endfacet
  facet normal -1 0 0
    outer loop
      vertex 73 -9.60393 2.47545
      vertex 73 -6.68015 2.03058
      vertex 73 -6.75 1.5
    endloop
  endfacet
  facet normal -1 0 0
    outer loop
      vertex 73 -9.3194 -0.413417
      vertex 73 -6.47535 0.475
      vertex 73 -8.85735 -1.27785
    endloop
  endfacet
  facet normal -1 0 0
    outer loop
      vertex 73 -5.725 3.27535
      vertex 73 -7.47785 5.65735
      vertex 73 -6.61342 6.1194
    endloop
  endfacet
  facet normal -1 -0 0
    outer loop
      vertex 73 -6.47535 0.475
      vertex 73 -9.3194 -0.413417
      vertex 73 -6.68015 0.969421
    endloop
  endfacet
  facet normal -1 0 0
    outer loop
      vertex 73 -6.14957 2.94957
      vertex 73 -8.23553 5.03553
      vertex 73 -7.47785 5.65735
    endloop
  endfacet
  facet normal -1 0 0
    outer loop
      vertex 73 -9.60393 0.524549
      vertex 73 -6.68015 0.969421
      vertex 73 -9.3194 -0.413417
    endloop
  endfacet
  facet normal -1 0 0
    outer loop
      vertex 73 -6.14957 2.94957
      vertex 73 -8.85735 4.27785
      vertex 73 -8.23553 5.03553
    endloop
  endfacet
  facet normal -1 -0 0
    outer loop
      vertex 73 -6.68015 0.969421
      vertex 73 -9.60393 0.524549
      vertex 73 -6.75 1.5
    endloop
  endfacet
  facet normal -1 0 0
    outer loop
      vertex 73 -6.47535 2.525
      vertex 73 -9.3194 3.41342
      vertex 73 -8.85735 4.27785
    endloop
  endfacet
  facet normal -1 0 0
    outer loop
      vertex 73 -9.7 1.5
      vertex 73 -6.75 1.5
      vertex 73 -9.60393 0.524549
    endloop
  endfacet
  facet normal -1 0 0
    outer loop
      vertex 73 -6.68015 2.03058
      vertex 73 -9.60393 2.47545
      vertex 73 -9.3194 3.41342
    endloop
  endfacet
  facet normal -1 0 0
    outer loop
      vertex 73 -6.75 1.5
      vertex 73 -9.7 1.5
      vertex 73 -9.60393 2.47545
    endloop
  endfacet
  facet normal -0 0.471399 0.88192
    outer loop
      vertex 73 -1.92215 5.65735
      vertex 91 -2.78658 6.1194
      vertex 91 -1.92215 5.65735
    endloop
  endfacet
  facet normal 0 0.471399 0.88192
    outer loop
      vertex 91 -2.78658 6.1194
      vertex 73 -1.92215 5.65735
      vertex 73 -2.78658 6.1194
    endloop
  endfacet
  facet normal 0 -0.290285 -0.95694
    outer loop
      vertex 73 -6.61342 -3.1194
      vertex 91 -5.67545 -3.40393
      vertex 91 -6.61342 -3.1194
    endloop
  endfacet
  facet normal -0 -0.290285 -0.95694
    outer loop
      vertex 91 -5.67545 -3.40393
      vertex 73 -6.61342 -3.1194
      vertex 73 -5.67545 -3.40393
    endloop
  endfacet
  facet normal 0 -0.0980137 -0.995185
    outer loop
      vertex 73 -5.67545 -3.40393
      vertex 91 -4.7 -3.5
      vertex 91 -5.67545 -3.40393
    endloop
  endfacet
  facet normal -0 -0.0980137 -0.995185
    outer loop
      vertex 91 -4.7 -3.5
      vertex 73 -5.67545 -3.40393
      vertex 73 -4.7 -3.5
    endloop
  endfacet
  facet normal 0 -0.95694 0.290285
    outer loop
      vertex 73 -9.60393 2.47545
      vertex 91 -9.3194 3.41342
      vertex 73 -9.3194 3.41342
    endloop
  endfacet
  facet normal 0 -0.95694 0.290285
    outer loop
      vertex 91 -9.3194 3.41342
      vertex 73 -9.60393 2.47545
      vertex 91 -9.60393 2.47545
    endloop
  endfacet
  facet normal 0 -0.995185 0.0980137
    outer loop
      vertex 73 -9.7 1.5
      vertex 91 -9.60393 2.47545
      vertex 73 -9.60393 2.47545
    endloop
  endfacet
  facet normal 0 -0.995185 0.0980137
    outer loop
      vertex 91 -9.60393 2.47545
      vertex 73 -9.7 1.5
      vertex 91 -9.7 1.5
    endloop
  endfacet
  facet normal 0 -0.608761 0.793354
    outer loop
      vertex 73 -3.25043 0.0504313
      vertex 83 -3.675 -0.275352
      vertex 83 -3.25043 0.0504313
    endloop
  endfacet
  facet normal 0 -0.608761 0.793354
    outer loop
      vertex 83 -3.675 -0.275352
      vertex 73 -3.25043 0.0504313
      vertex 73 -3.675 -0.275352
    endloop
  endfacet
  facet normal -0 0.608761 0.793354
    outer loop
      vertex 73 -5.725 -0.275352
      vertex 83 -6.14957 0.0504313
      vertex 83 -5.725 -0.275352
    endloop
  endfacet
  facet normal 0 0.608761 0.793354
    outer loop
      vertex 83 -6.14957 0.0504313
      vertex 73 -5.725 -0.275352
      vertex 73 -6.14957 0.0504313
    endloop
  endfacet
  facet normal 0 0.608757 -0.793357
    outer loop
      vertex 73 -6.14957 2.94957
      vertex 83 -5.725 3.27535
      vertex 83 -6.14957 2.94957
    endloop
  endfacet
  facet normal 0 0.608757 -0.793357
    outer loop
      vertex 83 -5.725 3.27535
      vertex 73 -6.14957 2.94957
      vertex 73 -5.725 3.27535
    endloop
  endfacet
  facet normal 0 -0.793356 0.608758
    outer loop
      vertex 73 -3.25043 0.0504313
      vertex 83 -2.92465 0.475
      vertex 73 -2.92465 0.475
    endloop
  endfacet
  facet normal 0 -0.793356 0.608758
    outer loop
      vertex 83 -2.92465 0.475
      vertex 73 -3.25043 0.0504313
      vertex 83 -3.25043 0.0504313
    endloop
  endfacet
  facet normal 0 -0.793357 -0.608757
    outer loop
      vertex 73 -2.92465 2.525
      vertex 83 -3.25043 2.94957
      vertex 73 -3.25043 2.94957
    endloop
  endfacet
  facet normal 0 -0.793357 -0.608757
    outer loop
      vertex 83 -3.25043 2.94957
      vertex 73 -2.92465 2.525
      vertex 83 -2.92465 2.525
    endloop
  endfacet
  facet normal 0 0.382691 -0.923877
    outer loop
      vertex 73 -5.725 3.27535
      vertex 83 -5.23058 3.48015
      vertex 83 -5.725 3.27535
    endloop
  endfacet
  facet normal 0 0.382691 -0.923877
    outer loop
      vertex 83 -5.23058 3.48015
      vertex 73 -5.725 3.27535
      vertex 73 -5.23058 3.48015
    endloop
  endfacet
  facet normal 0 -0.130526 0.991445
    outer loop
      vertex 73 -4.16942 -0.480147
      vertex 83 -4.7 -0.549999
      vertex 83 -4.16942 -0.480147
    endloop
  endfacet
  facet normal 0 -0.130526 0.991445
    outer loop
      vertex 83 -4.7 -0.549999
      vertex 73 -4.16942 -0.480147
      vertex 73 -4.7 -0.549999
    endloop
  endfacet
  facet normal -0 0.130526 0.991445
    outer loop
      vertex 73 -4.7 -0.549999
      vertex 83 -5.23058 -0.480147
      vertex 83 -4.7 -0.549999
    endloop
  endfacet
  facet normal 0 0.130526 0.991445
    outer loop
      vertex 83 -5.23058 -0.480147
      vertex 73 -4.7 -0.549999
      vertex 73 -5.23058 -0.480147
    endloop
  endfacet
  facet normal 0 0.991445 -0.130522
    outer loop
      vertex 83 -6.75 1.5
      vertex 73 -6.68015 2.03058
      vertex 83 -6.68015 2.03058
    endloop
  endfacet
  facet normal 0 0.991445 -0.130522
    outer loop
      vertex 73 -6.68015 2.03058
      vertex 83 -6.75 1.5
      vertex 73 -6.75 1.5
    endloop
  endfacet
  facet normal 0 -0.991445 0.130522
    outer loop
      vertex 73 -2.71985 0.969421
      vertex 83 -2.65 1.5
      vertex 73 -2.65 1.5
    endloop
  endfacet
  facet normal 0 -0.991445 0.130522
    outer loop
      vertex 83 -2.65 1.5
      vertex 73 -2.71985 0.969421
      vertex 83 -2.71985 0.969421
    endloop
  endfacet
  facet normal 0 0.923877 -0.382691
    outer loop
      vertex 83 -6.68015 2.03058
      vertex 73 -6.47535 2.525
      vertex 83 -6.47535 2.525
    endloop
  endfacet
  facet normal 0 0.923877 -0.382691
    outer loop
      vertex 73 -6.47535 2.525
      vertex 83 -6.68015 2.03058
      vertex 73 -6.68015 2.03058
    endloop
  endfacet
  facet normal 0 -0.923877 0.38269
    outer loop
      vertex 73 -2.92465 0.475
      vertex 83 -2.71985 0.969421
      vertex 73 -2.71985 0.969421
    endloop
  endfacet
  facet normal 0 -0.923877 0.38269
    outer loop
      vertex 83 -2.71985 0.969421
      vertex 73 -2.92465 0.475
      vertex 83 -2.92465 0.475
    endloop
  endfacet
  facet normal 0 -0.608757 -0.793357
    outer loop
      vertex 73 -3.675 3.27535
      vertex 83 -3.25043 2.94957
      vertex 83 -3.675 3.27535
    endloop
  endfacet
  facet normal -0 -0.608757 -0.793357
    outer loop
      vertex 83 -3.25043 2.94957
      vertex 73 -3.675 3.27535
      vertex 73 -3.25043 2.94957
    endloop
  endfacet
  facet normal -0 0.382683 0.92388
    outer loop
      vertex 73 -5.23058 -0.480147
      vertex 83 -5.725 -0.275352
      vertex 83 -5.23058 -0.480147
    endloop
  endfacet
  facet normal 0 0.382683 0.92388
    outer loop
      vertex 83 -5.725 -0.275352
      vertex 73 -5.23058 -0.480147
      vertex 73 -5.725 -0.275352
    endloop
  endfacet
  facet normal 0 0.923877 0.38269
    outer loop
      vertex 83 -6.47535 0.475
      vertex 73 -6.68015 0.969421
      vertex 83 -6.68015 0.969421
    endloop
  endfacet
  facet normal 0 0.923877 0.38269
    outer loop
      vertex 73 -6.68015 0.969421
      vertex 83 -6.47535 0.475
      vertex 73 -6.47535 0.475
    endloop
  endfacet
  facet normal 0 0.130522 -0.991445
    outer loop
      vertex 73 -5.23058 3.48015
      vertex 83 -4.7 3.55
      vertex 83 -5.23058 3.48015
    endloop
  endfacet
  facet normal 0 0.130522 -0.991445
    outer loop
      vertex 83 -4.7 3.55
      vertex 73 -5.23058 3.48015
      vertex 73 -4.7 3.55
    endloop
  endfacet
  facet normal 0 -0.923877 -0.382691
    outer loop
      vertex 73 -2.71985 2.03058
      vertex 83 -2.92465 2.525
      vertex 73 -2.92465 2.525
    endloop
  endfacet
  facet normal 0 -0.923877 -0.382691
    outer loop
      vertex 83 -2.92465 2.525
      vertex 73 -2.71985 2.03058
      vertex 83 -2.71985 2.03058
    endloop
  endfacet
  facet normal 0 0.793356 0.608758
    outer loop
      vertex 83 -6.14957 0.0504313
      vertex 73 -6.47535 0.475
      vertex 83 -6.47535 0.475
    endloop
  endfacet
  facet normal 0 0.793356 0.608758
    outer loop
      vertex 73 -6.47535 0.475
      vertex 83 -6.14957 0.0504313
      vertex 73 -6.14957 0.0504313
    endloop
  endfacet
  facet normal 0 -0.991445 -0.130522
    outer loop
      vertex 73 -2.65 1.5
      vertex 83 -2.71985 2.03058
      vertex 73 -2.71985 2.03058
    endloop
  endfacet
  facet normal 0 -0.991445 -0.130522
    outer loop
      vertex 83 -2.71985 2.03058
      vertex 73 -2.65 1.5
      vertex 83 -2.65 1.5
    endloop
  endfacet
  facet normal 0 -0.382683 0.92388
    outer loop
      vertex 73 -3.675 -0.275352
      vertex 83 -4.16942 -0.480147
      vertex 83 -3.675 -0.275352
    endloop
  endfacet
  facet normal 0 -0.382683 0.92388
    outer loop
      vertex 83 -4.16942 -0.480147
      vertex 73 -3.675 -0.275352
      vertex 73 -4.16942 -0.480147
    endloop
  endfacet
  facet normal 0 0.793357 -0.608757
    outer loop
      vertex 83 -6.47535 2.525
      vertex 73 -6.14957 2.94957
      vertex 83 -6.14957 2.94957
    endloop
  endfacet
  facet normal 0 0.793357 -0.608757
    outer loop
      vertex 73 -6.14957 2.94957
      vertex 83 -6.47535 2.525
      vertex 73 -6.47535 2.525
    endloop
  endfacet
  facet normal 0 -0.130522 -0.991445
    outer loop
      vertex 73 -4.7 3.55
      vertex 83 -4.16942 3.48015
      vertex 83 -4.7 3.55
    endloop
  endfacet
  facet normal -0 -0.130522 -0.991445
    outer loop
      vertex 83 -4.16942 3.48015
      vertex 73 -4.7 3.55
      vertex 73 -4.16942 3.48015
    endloop
  endfacet
  facet normal 0 0.991445 0.130522
    outer loop
      vertex 83 -6.68015 0.969421
      vertex 73 -6.75 1.5
      vertex 83 -6.75 1.5
    endloop
  endfacet
  facet normal 0 0.991445 0.130522
    outer loop
      vertex 73 -6.75 1.5
      vertex 83 -6.68015 0.969421
      vertex 73 -6.68015 0.969421
    endloop
  endfacet
  facet normal -1 0 0
    outer loop
      vertex 83 -2.71985 0.969421
      vertex 83 -2.71985 2.03058
      vertex 83 -2.65 1.5
    endloop
  endfacet
  facet normal -1 0 0
    outer loop
      vertex 83 -2.92465 0.475
      vertex 83 -2.71985 2.03058
      vertex 83 -2.71985 0.969421
    endloop
  endfacet
  facet normal -1 0 0
    outer loop
      vertex 83 -2.92465 0.475
      vertex 83 -2.92465 2.525
      vertex 83 -2.71985 2.03058
    endloop
  endfacet
  facet normal -1 0 0
    outer loop
      vertex 83 -3.25043 0.0504313
      vertex 83 -2.92465 2.525
      vertex 83 -2.92465 0.475
    endloop
  endfacet
  facet normal -1 0 0
    outer loop
      vertex 83 -3.25043 0.0504313
      vertex 83 -3.25043 2.94957
      vertex 83 -2.92465 2.525
    endloop
  endfacet
  facet normal -1 0 0
    outer loop
      vertex 83 -3.675 -0.275352
      vertex 83 -3.25043 2.94957
      vertex 83 -3.25043 0.0504313
    endloop
  endfacet
  facet normal -1 0 0
    outer loop
      vertex 83 -3.675 -0.275352
      vertex 83 -3.675 3.27535
      vertex 83 -3.25043 2.94957
    endloop
  endfacet
  facet normal -1 0 0
    outer loop
      vertex 83 -4.16942 -0.480147
      vertex 83 -3.675 3.27535
      vertex 83 -3.675 -0.275352
    endloop
  endfacet
  facet normal -1 0 0
    outer loop
      vertex 83 -4.16942 -0.480147
      vertex 83 -4.16942 3.48015
      vertex 83 -3.675 3.27535
    endloop
  endfacet
  facet normal -1 0 0
    outer loop
      vertex 83 -4.7 -0.549999
      vertex 83 -4.16942 3.48015
      vertex 83 -4.16942 -0.480147
    endloop
  endfacet
  facet normal -1 0 0
    outer loop
      vertex 83 -4.7 -0.549999
      vertex 83 -4.7 3.55
      vertex 83 -4.16942 3.48015
    endloop
  endfacet
  facet normal -1 0 0
    outer loop
      vertex 83 -5.23058 -0.480147
      vertex 83 -4.7 3.55
      vertex 83 -4.7 -0.549999
    endloop
  endfacet
  facet normal -1 0 0
    outer loop
      vertex 83 -5.23058 -0.480147
      vertex 83 -5.23058 3.48015
      vertex 83 -4.7 3.55
    endloop
  endfacet
  facet normal -1 0 0
    outer loop
      vertex 83 -5.725 -0.275352
      vertex 83 -5.23058 3.48015
      vertex 83 -5.23058 -0.480147
    endloop
  endfacet
  facet normal -1 0 0
    outer loop
      vertex 83 -5.725 -0.275352
      vertex 83 -5.725 3.27535
      vertex 83 -5.23058 3.48015
    endloop
  endfacet
  facet normal -1 0 0
    outer loop
      vertex 83 -6.14957 0.0504313
      vertex 83 -5.725 3.27535
      vertex 83 -5.725 -0.275352
    endloop
  endfacet
  facet normal -1 0 0
    outer loop
      vertex 83 -6.14957 0.0504313
      vertex 83 -6.14957 2.94957
      vertex 83 -5.725 3.27535
    endloop
  endfacet
  facet normal -1 0 0
    outer loop
      vertex 83 -6.47535 0.475
      vertex 83 -6.14957 2.94957
      vertex 83 -6.14957 0.0504313
    endloop
  endfacet
  facet normal -1 0 0
    outer loop
      vertex 83 -6.47535 0.475
      vertex 83 -6.47535 2.525
      vertex 83 -6.14957 2.94957
    endloop
  endfacet
  facet normal -1 0 0
    outer loop
      vertex 83 -6.68015 0.969421
      vertex 83 -6.47535 2.525
      vertex 83 -6.47535 0.475
    endloop
  endfacet
  facet normal -1 0 0
    outer loop
      vertex 83 -6.68015 0.969421
      vertex 83 -6.68015 2.03058
      vertex 83 -6.47535 2.525
    endloop
  endfacet
  facet normal -1 0 -0
    outer loop
      vertex 83 -6.68015 2.03058
      vertex 83 -6.68015 0.969421
      vertex 83 -6.75 1.5
    endloop
  endfacet
  facet normal 0 -0.382691 -0.923877
    outer loop
      vertex 73 -4.16942 3.48015
      vertex 83 -3.675 3.27535
      vertex 83 -4.16942 3.48015
    endloop
  endfacet
  facet normal -0 -0.382691 -0.923877
    outer loop
      vertex 83 -3.675 3.27535
      vertex 73 -4.16942 3.48015
      vertex 73 -3.675 3.27535
    endloop
  endfacet
  facet normal 1 -0 0
    outer loop
      vertex 120 0 3
      vertex 120 64 0
      vertex 120 64 3
    endloop
  endfacet
  facet normal 1 0 0
    outer loop
      vertex 120 64 0
      vertex 120 0 3
      vertex 120 0 0
    endloop
  endfacet
  facet normal 0 0 1
    outer loop
      vertex 120 64 3
      vertex 91 0.0448058 3
      vertex 120 0 3
    endloop
  endfacet
  facet normal 0 0 1
    outer loop
      vertex 120 64 3
      vertex 73 0.0448058 3
      vertex 91 0.0448058 3
    endloop
  endfacet
  facet normal 0 0 1
    outer loop
      vertex 73 0.0448058 3
      vertex 47 0.0448058 3
      vertex 73 0 3
    endloop
  endfacet
  facet normal 0 0 1
    outer loop
      vertex 120 64 3
      vertex 47 0.0448058 3
      vertex 73 0.0448058 3
    endloop
  endfacet
  facet normal -0 0 1
    outer loop
      vertex 0 64 3
      vertex 47 0.0448058 3
      vertex 120 64 3
    endloop
  endfacet
  facet normal 0 0 1
    outer loop
      vertex 47 0.0448058 3
      vertex 0 64 3
      vertex 29 0.0448058 3
    endloop
  endfacet
  facet normal 0 0 1
    outer loop
      vertex 0 0 3
      vertex 29 0.0448058 3
      vertex 0 64 3
    endloop
  endfacet
  facet normal 0 0 1
    outer loop
      vertex 29 0.0448058 3
      vertex 0 0 3
      vertex 29 0 3
    endloop
  endfacet
  facet normal 0 0 1
    outer loop
      vertex 120 0 3
      vertex 91 0.0448058 3
      vertex 91 0 3
    endloop
  endfacet
  facet normal 0 0 1
    outer loop
      vertex 73 0 3
      vertex 47 0.0448058 3
      vertex 47 0 3
    endloop
  endfacet
  facet normal 0 0 -1
    outer loop
      vertex 29 0 0
      vertex 0 0 0
      vertex 29 0.0448058 0
    endloop
  endfacet
  facet normal 0 0 -1
    outer loop
      vertex 73 0 0
      vertex 47 0 0
      vertex 73 0.0448058 0
    endloop
  endfacet
  facet normal 0 0 -1
    outer loop
      vertex 91 0.0448058 0
      vertex 120 0 0
      vertex 91 0 0
    endloop
  endfacet
  facet normal 0 0 -1
    outer loop
      vertex 120 0 0
      vertex 91 0.0448058 0
      vertex 120 64 0
    endloop
  endfacet
  facet normal 0 0 -1
    outer loop
      vertex 73 0.0448058 0
      vertex 120 64 0
      vertex 91 0.0448058 0
    endloop
  endfacet
  facet normal 0 0 -1
    outer loop
      vertex 47 0.0448058 0
      vertex 73 0.0448058 0
      vertex 47 0 0
    endloop
  endfacet
  facet normal 0 0 -1
    outer loop
      vertex 73 0.0448058 0
      vertex 47 0.0448058 0
      vertex 120 64 0
    endloop
  endfacet
  facet normal 0 0 -1
    outer loop
      vertex 0 64 0
      vertex 47 0.0448058 0
      vertex 29 0.0448058 0
    endloop
  endfacet
  facet normal 0 0 -1
    outer loop
      vertex 0 64 0
      vertex 29 0.0448058 0
      vertex 0 0 0
    endloop
  endfacet
  facet normal 0 0 -1
    outer loop
      vertex 47 0.0448058 0
      vertex 0 64 0
      vertex 120 64 0
    endloop
  endfacet
  facet normal -1 0 0
    outer loop
      vertex 0 0 0
      vertex 0 64 3
      vertex 0 64 0
    endloop
  endfacet
  facet normal -1 -0 0
    outer loop
      vertex 0 64 3
      vertex 0 0 0
      vertex 0 0 3
    endloop
  endfacet
  facet normal 0 1 -0
    outer loop
      vertex 120 64 0
      vertex 0 64 3
      vertex 120 64 3
    endloop
  endfacet
  facet normal 0 1 0
    outer loop
      vertex 0 64 3
      vertex 120 64 0
      vertex 0 64 0
    endloop
  endfacet
  facet normal 0 -1 0
    outer loop
      vertex 0 0 0
      vertex 29 0 3
      vertex 0 0 3
    endloop
  endfacet
  facet normal 0 -1 -0
    outer loop
      vertex 29 0 3
      vertex 0 0 0
      vertex 29 0 0
    endloop
  endfacet
  facet normal 0 -1 0
    outer loop
      vertex 91 0 0
      vertex 120 0 3
      vertex 91 0 3
    endloop
  endfacet
  facet normal 0 -1 -0
    outer loop
      vertex 120 0 3
      vertex 91 0 0
      vertex 120 0 0
    endloop
  endfacet
  facet normal 0 -1 0
    outer loop
      vertex 47 0 0
      vertex 73 0 3
      vertex 47 0 3
    endloop
  endfacet
  facet normal 0 -1 -0
    outer loop
      vertex 73 0 3
      vertex 47 0 0
      vertex 73 0 0
    endloop
  endfacet
endsolid OpenSCAD_Model
