solid OpenSCAD_Model
  facet normal -1 0 0
    outer loop
      vertex 12 23.2 19.6
      vertex 12 26.2 22.6
      vertex 12 26.2 19.6
    endloop
  endfacet
  facet normal -1 -0 0
    outer loop
      vertex 12 26.2 22.6
      vertex 12 23.2 19.6
      vertex 12 23.2 22.6
    endloop
  endfacet
  facet normal -1 0 0
    outer loop
      vertex 12 0 19.6
      vertex 12 3 22.6
      vertex 12 3 19.6
    endloop
  endfacet
  facet normal -1 -0 0
    outer loop
      vertex 12 3 22.6
      vertex 12 0 19.6
      vertex 12 0 22.6
    endloop
  endfacet
  facet normal 0 0 -1
    outer loop
      vertex 9 23.2 22.6
      vertex 12 26.2 22.6
      vertex 12 23.2 22.6
    endloop
  endfacet
  facet normal -0 0 -1
    outer loop
      vertex 12 26.2 22.6
      vertex 9 23.2 22.6
      vertex 9 26.2 22.6
    endloop
  endfacet
  facet normal 0 0 -1
    outer loop
      vertex 9 0 22.6
      vertex 12 3 22.6
      vertex 12 0 22.6
    endloop
  endfacet
  facet normal -0 0 -1
    outer loop
      vertex 12 3 22.6
      vertex 9 0 22.6
      vertex 9 3 22.6
    endloop
  endfacet
  facet normal -0 0 1
    outer loop
      vertex 9 26.2 19.6
      vertex 12 23.2 19.6
      vertex 12 26.2 19.6
    endloop
  endfacet
  facet normal 0 0 1
    outer loop
      vertex 12 23.2 19.6
      vertex 9 26.2 19.6
      vertex 9 23.2 19.6
    endloop
  endfacet
  facet normal -0 0 1
    outer loop
      vertex 9 3 19.6
      vertex 12 0 19.6
      vertex 12 3 19.6
    endloop
  endfacet
  facet normal 0 0 1
    outer loop
      vertex 12 0 19.6
      vertex 9 3 19.6
      vertex 9 0 19.6
    endloop
  endfacet
  facet normal 1 -0 0
    outer loop
      vertex 9 23.2 22.6
      vertex 9 26.2 19.6
      vertex 9 26.2 22.6
    endloop
  endfacet
  facet normal 1 0 0
    outer loop
      vertex 9 26.2 19.6
      vertex 9 23.2 22.6
      vertex 9 23.2 19.6
    endloop
  endfacet
  facet normal 1 -0 0
    outer loop
      vertex 9 0 22.6
      vertex 9 3 19.6
      vertex 9 3 22.6
    endloop
  endfacet
  facet normal 1 0 0
    outer loop
      vertex 9 3 19.6
      vertex 9 0 22.6
      vertex 9 0 19.6
    endloop
  endfacet
  facet normal -1 0 0
    outer loop
      vertex 12 23.2 48.8
      vertex 12 26.2 51.8
      vertex 12 26.2 48.8
    endloop
  endfacet
  facet normal -1 -0 0
    outer loop
      vertex 12 26.2 51.8
      vertex 12 23.2 48.8
      vertex 12 23.2 51.8
    endloop
  endfacet
  facet normal -1 0 0
    outer loop
      vertex 12 0 48.8
      vertex 12 3 51.8
      vertex 12 3 48.8
    endloop
  endfacet
  facet normal -1 -0 0
    outer loop
      vertex 12 3 51.8
      vertex 12 0 48.8
      vertex 12 0 51.8
    endloop
  endfacet
  facet normal 0 0 -1
    outer loop
      vertex 9 23.2 51.8
      vertex 12 26.2 51.8
      vertex 12 23.2 51.8
    endloop
  endfacet
  facet normal -0 0 -1
    outer loop
      vertex 12 26.2 51.8
      vertex 9 23.2 51.8
      vertex 9 26.2 51.8
    endloop
  endfacet
  facet normal 0 0 -1
    outer loop
      vertex 9 0 51.8
      vertex 12 3 51.8
      vertex 12 0 51.8
    endloop
  endfacet
  facet normal -0 0 -1
    outer loop
      vertex 12 3 51.8
      vertex 9 0 51.8
      vertex 9 3 51.8
    endloop
  endfacet
  facet normal -0 0 1
    outer loop
      vertex 9 26.2 48.8
      vertex 12 23.2 48.8
      vertex 12 26.2 48.8
    endloop
  endfacet
  facet normal 0 0 1
    outer loop
      vertex 12 23.2 48.8
      vertex 9 26.2 48.8
      vertex 9 23.2 48.8
    endloop
  endfacet
  facet normal -0 0 1
    outer loop
      vertex 9 3 48.8
      vertex 12 0 48.8
      vertex 12 3 48.8
    endloop
  endfacet
  facet normal 0 0 1
    outer loop
      vertex 12 0 48.8
      vertex 9 3 48.8
      vertex 9 0 48.8
    endloop
  endfacet
  facet normal 1 -0 0
    outer loop
      vertex 9 23.2 51.8
      vertex 9 26.2 48.8
      vertex 9 26.2 51.8
    endloop
  endfacet
  facet normal 1 0 0
    outer loop
      vertex 9 26.2 48.8
      vertex 9 23.2 51.8
      vertex 9 23.2 48.8
    endloop
  endfacet
  facet normal 1 -0 0
    outer loop
      vertex 9 0 51.8
      vertex 9 3 48.8
      vertex 9 3 51.8
    endloop
  endfacet
  facet normal 1 0 0
    outer loop
      vertex 9 3 48.8
      vertex 9 0 51.8
      vertex 9 0 48.8
    endloop
  endfacet
  facet normal 0.382815 0.923825 -0
    outer loop
      vertex 5.56001 11.4579 0
      vertex 5.15 11.6278 15.1
      vertex 5.56001 11.4579 15.1
    endloop
  endfacet
  facet normal 0.382815 0.923825 0
    outer loop
      vertex 5.15 11.6278 15.1
      vertex 5.56001 11.4579 0
      vertex 5.15 11.6278 0
    endloop
  endfacet
  facet normal -0.923878 -0.382688 0
    outer loop
      vertex 7.64207 13.54 0
      vertex 7.47224 13.95 15.1
      vertex 7.47224 13.95 0
    endloop
  endfacet
  facet normal -0.923878 -0.382688 0
    outer loop
      vertex 7.47224 13.95 15.1
      vertex 7.64207 13.54 0
      vertex 7.64207 13.54 15.1
    endloop
  endfacet
  facet normal -0.991444 -0.130533 0
    outer loop
      vertex 7.7 13.1 0
      vertex 7.64207 13.54 15.1
      vertex 7.64207 13.54 0
    endloop
  endfacet
  facet normal -0.991444 -0.130533 0
    outer loop
      vertex 7.64207 13.54 15.1
      vertex 7.7 13.1 0
      vertex 7.7 13.1 15.1
    endloop
  endfacet
  facet normal -0.793371 -0.608739 0
    outer loop
      vertex 7.47224 13.95 0
      vertex 7.20208 14.3021 15.1
      vertex 7.20208 14.3021 0
    endloop
  endfacet
  facet normal -0.793371 -0.608739 0
    outer loop
      vertex 7.20208 14.3021 15.1
      vertex 7.47224 13.95 0
      vertex 7.47224 13.95 15.1
    endloop
  endfacet
  facet normal 0.130469 -0.991452 0
    outer loop
      vertex 5.56001 14.7421 0
      vertex 6 14.8 15.1
      vertex 5.56001 14.7421 15.1
    endloop
  endfacet
  facet normal 0.130469 -0.991452 0
    outer loop
      vertex 6 14.8 15.1
      vertex 5.56001 14.7421 0
      vertex 6 14.8 0
    endloop
  endfacet
  facet normal 0.608676 0.793419 -0
    outer loop
      vertex 5.15 11.6278 0
      vertex 4.79792 11.8979 15.1
      vertex 5.15 11.6278 15.1
    endloop
  endfacet
  facet normal 0.608676 0.793419 0
    outer loop
      vertex 4.79792 11.8979 15.1
      vertex 5.15 11.6278 0
      vertex 4.79792 11.8979 0
    endloop
  endfacet
  facet normal -0.608676 -0.793419 0
    outer loop
      vertex 6.85 14.5722 0
      vertex 7.20208 14.3021 15.1
      vertex 6.85 14.5722 15.1
    endloop
  endfacet
  facet normal -0.608676 -0.793419 -0
    outer loop
      vertex 7.20208 14.3021 15.1
      vertex 6.85 14.5722 0
      vertex 7.20208 14.3021 0
    endloop
  endfacet
  facet normal 0.793371 -0.608739 0
    outer loop
      vertex 4.52776 13.95 15.1
      vertex 4.79792 14.3021 0
      vertex 4.79792 14.3021 15.1
    endloop
  endfacet
  facet normal 0.793371 -0.608739 0
    outer loop
      vertex 4.79792 14.3021 0
      vertex 4.52776 13.95 15.1
      vertex 4.52776 13.95 0
    endloop
  endfacet
  facet normal -0.130469 0.991452 0
    outer loop
      vertex 6.43999 11.4579 0
      vertex 6 11.4 15.1
      vertex 6.43999 11.4579 15.1
    endloop
  endfacet
  facet normal -0.130469 0.991452 0
    outer loop
      vertex 6 11.4 15.1
      vertex 6.43999 11.4579 0
      vertex 6 11.4 0
    endloop
  endfacet
  facet normal -0.382815 -0.923825 0
    outer loop
      vertex 6.43999 14.7421 0
      vertex 6.85 14.5722 15.1
      vertex 6.43999 14.7421 15.1
    endloop
  endfacet
  facet normal -0.382815 -0.923825 -0
    outer loop
      vertex 6.85 14.5722 15.1
      vertex 6.43999 14.7421 0
      vertex 6.85 14.5722 0
    endloop
  endfacet
  facet normal 0.608676 -0.793419 0
    outer loop
      vertex 4.79792 14.3021 0
      vertex 5.15 14.5722 15.1
      vertex 4.79792 14.3021 15.1
    endloop
  endfacet
  facet normal 0.608676 -0.793419 0
    outer loop
      vertex 5.15 14.5722 15.1
      vertex 4.79792 14.3021 0
      vertex 5.15 14.5722 0
    endloop
  endfacet
  facet normal -0.991444 0.130533 0
    outer loop
      vertex 7.64207 12.66 0
      vertex 7.7 13.1 15.1
      vertex 7.7 13.1 0
    endloop
  endfacet
  facet normal -0.991444 0.130533 0
    outer loop
      vertex 7.7 13.1 15.1
      vertex 7.64207 12.66 0
      vertex 7.64207 12.66 15.1
    endloop
  endfacet
  facet normal -0.793371 0.608739 0
    outer loop
      vertex 7.20208 11.8979 0
      vertex 7.47224 12.25 15.1
      vertex 7.47224 12.25 0
    endloop
  endfacet
  facet normal -0.793371 0.608739 0
    outer loop
      vertex 7.47224 12.25 15.1
      vertex 7.20208 11.8979 0
      vertex 7.20208 11.8979 15.1
    endloop
  endfacet
  facet normal 0.991444 -0.130533 0
    outer loop
      vertex 4.3 13.1 15.1
      vertex 4.35793 13.54 0
      vertex 4.35793 13.54 15.1
    endloop
  endfacet
  facet normal 0.991444 -0.130533 0
    outer loop
      vertex 4.35793 13.54 0
      vertex 4.3 13.1 15.1
      vertex 4.3 13.1 0
    endloop
  endfacet
  facet normal -0.608676 0.793419 0
    outer loop
      vertex 7.20208 11.8979 0
      vertex 6.85 11.6278 15.1
      vertex 7.20208 11.8979 15.1
    endloop
  endfacet
  facet normal -0.608676 0.793419 0
    outer loop
      vertex 6.85 11.6278 15.1
      vertex 7.20208 11.8979 0
      vertex 6.85 11.6278 0
    endloop
  endfacet
  facet normal 0.923878 0.382688 0
    outer loop
      vertex 4.52776 12.25 15.1
      vertex 4.35793 12.66 0
      vertex 4.35793 12.66 15.1
    endloop
  endfacet
  facet normal 0.923878 0.382688 0
    outer loop
      vertex 4.35793 12.66 0
      vertex 4.52776 12.25 15.1
      vertex 4.52776 12.25 0
    endloop
  endfacet
  facet normal 0.382815 -0.923825 0
    outer loop
      vertex 5.15 14.5722 0
      vertex 5.56001 14.7421 15.1
      vertex 5.15 14.5722 15.1
    endloop
  endfacet
  facet normal 0.382815 -0.923825 0
    outer loop
      vertex 5.56001 14.7421 15.1
      vertex 5.15 14.5722 0
      vertex 5.56001 14.7421 0
    endloop
  endfacet
  facet normal 0.923878 -0.382688 0
    outer loop
      vertex 4.35793 13.54 15.1
      vertex 4.52776 13.95 0
      vertex 4.52776 13.95 15.1
    endloop
  endfacet
  facet normal 0.923878 -0.382688 0
    outer loop
      vertex 4.52776 13.95 0
      vertex 4.35793 13.54 15.1
      vertex 4.35793 13.54 0
    endloop
  endfacet
  facet normal -0.382815 0.923825 0
    outer loop
      vertex 6.85 11.6278 0
      vertex 6.43999 11.4579 15.1
      vertex 6.85 11.6278 15.1
    endloop
  endfacet
  facet normal -0.382815 0.923825 0
    outer loop
      vertex 6.43999 11.4579 15.1
      vertex 6.85 11.6278 0
      vertex 6.43999 11.4579 0
    endloop
  endfacet
  facet normal -0.923878 0.382688 0
    outer loop
      vertex 7.47224 12.25 0
      vertex 7.64207 12.66 15.1
      vertex 7.64207 12.66 0
    endloop
  endfacet
  facet normal -0.923878 0.382688 0
    outer loop
      vertex 7.64207 12.66 15.1
      vertex 7.47224 12.25 0
      vertex 7.47224 12.25 15.1
    endloop
  endfacet
  facet normal -0.130469 -0.991452 0
    outer loop
      vertex 6 14.8 0
      vertex 6.43999 14.7421 15.1
      vertex 6 14.8 15.1
    endloop
  endfacet
  facet normal -0.130469 -0.991452 -0
    outer loop
      vertex 6.43999 14.7421 15.1
      vertex 6 14.8 0
      vertex 6.43999 14.7421 0
    endloop
  endfacet
  facet normal 0.991444 0.130533 0
    outer loop
      vertex 4.35793 12.66 15.1
      vertex 4.3 13.1 0
      vertex 4.3 13.1 15.1
    endloop
  endfacet
  facet normal 0.991444 0.130533 0
    outer loop
      vertex 4.3 13.1 0
      vertex 4.35793 12.66 15.1
      vertex 4.35793 12.66 0
    endloop
  endfacet
  facet normal 0.130469 0.991452 -0
    outer loop
      vertex 6 11.4 0
      vertex 5.56001 11.4579 15.1
      vertex 6 11.4 15.1
    endloop
  endfacet
  facet normal 0.130469 0.991452 0
    outer loop
      vertex 5.56001 11.4579 15.1
      vertex 6 11.4 0
      vertex 5.56001 11.4579 0
    endloop
  endfacet
  facet normal 0.793371 0.608739 0
    outer loop
      vertex 4.79792 11.8979 15.1
      vertex 4.52776 12.25 0
      vertex 4.52776 12.25 15.1
    endloop
  endfacet
  facet normal 0.793371 0.608739 0
    outer loop
      vertex 4.52776 12.25 0
      vertex 4.79792 11.8979 15.1
      vertex 4.79792 11.8979 0
    endloop
  endfacet
  facet normal 0.382823 0.923822 -0
    outer loop
      vertex 39.96 11.4579 0
      vertex 39.55 11.6278 15.1
      vertex 39.96 11.4579 15.1
    endloop
  endfacet
  facet normal 0.382823 0.923822 0
    outer loop
      vertex 39.55 11.6278 15.1
      vertex 39.96 11.4579 0
      vertex 39.55 11.6278 0
    endloop
  endfacet
  facet normal -0.923822 -0.382823 0
    outer loop
      vertex 42.0421 13.54 0
      vertex 41.8722 13.95 15.1
      vertex 41.8722 13.95 0
    endloop
  endfacet
  facet normal -0.923822 -0.382823 0
    outer loop
      vertex 41.8722 13.95 15.1
      vertex 42.0421 13.54 0
      vertex 42.0421 13.54 15.1
    endloop
  endfacet
  facet normal -0.991453 -0.130466 0
    outer loop
      vertex 42.1 13.1 0
      vertex 42.0421 13.54 15.1
      vertex 42.0421 13.54 0
    endloop
  endfacet
  facet normal -0.991453 -0.130466 0
    outer loop
      vertex 42.0421 13.54 15.1
      vertex 42.1 13.1 0
      vertex 42.1 13.1 15.1
    endloop
  endfacet
  facet normal -0.923822 0.382823 0
    outer loop
      vertex 41.8722 12.25 0
      vertex 42.0421 12.66 15.1
      vertex 42.0421 12.66 0
    endloop
  endfacet
  facet normal -0.923822 0.382823 0
    outer loop
      vertex 42.0421 12.66 15.1
      vertex 41.8722 12.25 0
      vertex 41.8722 12.25 15.1
    endloop
  endfacet
  facet normal 0.608654 0.793436 -0
    outer loop
      vertex 39.55 11.6278 0
      vertex 39.1979 11.8979 15.1
      vertex 39.55 11.6278 15.1
    endloop
  endfacet
  facet normal 0.608654 0.793436 0
    outer loop
      vertex 39.1979 11.8979 15.1
      vertex 39.55 11.6278 0
      vertex 39.1979 11.8979 0
    endloop
  endfacet
  facet normal -0.608654 -0.793436 0
    outer loop
      vertex 41.25 14.5722 0
      vertex 41.6021 14.3021 15.1
      vertex 41.25 14.5722 15.1
    endloop
  endfacet
  facet normal -0.608654 -0.793436 -0
    outer loop
      vertex 41.6021 14.3021 15.1
      vertex 41.25 14.5722 0
      vertex 41.6021 14.3021 0
    endloop
  endfacet
  facet normal -0.382823 0.923822 0
    outer loop
      vertex 41.25 11.6278 0
      vertex 40.84 11.4579 15.1
      vertex 41.25 11.6278 15.1
    endloop
  endfacet
  facet normal -0.382823 0.923822 0
    outer loop
      vertex 40.84 11.4579 15.1
      vertex 41.25 11.6278 0
      vertex 40.84 11.4579 0
    endloop
  endfacet
  facet normal -0.793436 0.608654 0
    outer loop
      vertex 41.6021 11.8979 0
      vertex 41.8722 12.25 15.1
      vertex 41.8722 12.25 0
    endloop
  endfacet
  facet normal -0.793436 0.608654 0
    outer loop
      vertex 41.8722 12.25 15.1
      vertex 41.6021 11.8979 0
      vertex 41.6021 11.8979 15.1
    endloop
  endfacet
  facet normal 0.130466 -0.991453 0
    outer loop
      vertex 39.96 14.7421 0
      vertex 40.4 14.8 15.1
      vertex 39.96 14.7421 15.1
    endloop
  endfacet
  facet normal 0.130466 -0.991453 0
    outer loop
      vertex 40.4 14.8 15.1
      vertex 39.96 14.7421 0
      vertex 40.4 14.8 0
    endloop
  endfacet
  facet normal -0.793436 -0.608654 0
    outer loop
      vertex 41.8722 13.95 0
      vertex 41.6021 14.3021 15.1
      vertex 41.6021 14.3021 0
    endloop
  endfacet
  facet normal -0.793436 -0.608654 0
    outer loop
      vertex 41.6021 14.3021 15.1
      vertex 41.8722 13.95 0
      vertex 41.8722 13.95 15.1
    endloop
  endfacet
  facet normal -0.382823 -0.923822 0
    outer loop
      vertex 40.84 14.7421 0
      vertex 41.25 14.5722 15.1
      vertex 40.84 14.7421 15.1
    endloop
  endfacet
  facet normal -0.382823 -0.923822 -0
    outer loop
      vertex 41.25 14.5722 15.1
      vertex 40.84 14.7421 0
      vertex 41.25 14.5722 0
    endloop
  endfacet
  facet normal -0.608654 0.793436 0
    outer loop
      vertex 41.6021 11.8979 0
      vertex 41.25 11.6278 15.1
      vertex 41.6021 11.8979 15.1
    endloop
  endfacet
  facet normal -0.608654 0.793436 0
    outer loop
      vertex 41.25 11.6278 15.1
      vertex 41.6021 11.8979 0
      vertex 41.25 11.6278 0
    endloop
  endfacet
  facet normal 0.608654 -0.793436 0
    outer loop
      vertex 39.1979 14.3021 0
      vertex 39.55 14.5722 15.1
      vertex 39.1979 14.3021 15.1
    endloop
  endfacet
  facet normal 0.608654 -0.793436 0
    outer loop
      vertex 39.55 14.5722 15.1
      vertex 39.1979 14.3021 0
      vertex 39.55 14.5722 0
    endloop
  endfacet
  facet normal 0.793436 0.608654 0
    outer loop
      vertex 39.1979 11.8979 15.1
      vertex 38.9278 12.25 0
      vertex 38.9278 12.25 15.1
    endloop
  endfacet
  facet normal 0.793436 0.608654 0
    outer loop
      vertex 38.9278 12.25 0
      vertex 39.1979 11.8979 15.1
      vertex 39.1979 11.8979 0
    endloop
  endfacet
  facet normal 0.923822 -0.382823 0
    outer loop
      vertex 38.7579 13.54 15.1
      vertex 38.9278 13.95 0
      vertex 38.9278 13.95 15.1
    endloop
  endfacet
  facet normal 0.923822 -0.382823 0
    outer loop
      vertex 38.9278 13.95 0
      vertex 38.7579 13.54 15.1
      vertex 38.7579 13.54 0
    endloop
  endfacet
  facet normal 0.382823 -0.923822 0
    outer loop
      vertex 39.55 14.5722 0
      vertex 39.96 14.7421 15.1
      vertex 39.55 14.5722 15.1
    endloop
  endfacet
  facet normal 0.382823 -0.923822 0
    outer loop
      vertex 39.96 14.7421 15.1
      vertex 39.55 14.5722 0
      vertex 39.96 14.7421 0
    endloop
  endfacet
  facet normal -0.991453 0.130466 0
    outer loop
      vertex 42.0421 12.66 0
      vertex 42.1 13.1 15.1
      vertex 42.1 13.1 0
    endloop
  endfacet
  facet normal -0.991453 0.130466 0
    outer loop
      vertex 42.1 13.1 15.1
      vertex 42.0421 12.66 0
      vertex 42.0421 12.66 15.1
    endloop
  endfacet
  facet normal -0.130466 0.991453 0
    outer loop
      vertex 40.84 11.4579 0
      vertex 40.4 11.4 15.1
      vertex 40.84 11.4579 15.1
    endloop
  endfacet
  facet normal -0.130466 0.991453 0
    outer loop
      vertex 40.4 11.4 15.1
      vertex 40.84 11.4579 0
      vertex 40.4 11.4 0
    endloop
  endfacet
  facet normal 0.991453 -0.130466 0
    outer loop
      vertex 38.7 13.1 15.1
      vertex 38.7579 13.54 0
      vertex 38.7579 13.54 15.1
    endloop
  endfacet
  facet normal 0.991453 -0.130466 0
    outer loop
      vertex 38.7579 13.54 0
      vertex 38.7 13.1 15.1
      vertex 38.7 13.1 0
    endloop
  endfacet
  facet normal 0.130466 0.991453 -0
    outer loop
      vertex 40.4 11.4 0
      vertex 39.96 11.4579 15.1
      vertex 40.4 11.4 15.1
    endloop
  endfacet
  facet normal 0.130466 0.991453 0
    outer loop
      vertex 39.96 11.4579 15.1
      vertex 40.4 11.4 0
      vertex 39.96 11.4579 0
    endloop
  endfacet
  facet normal 0.793436 -0.608654 0
    outer loop
      vertex 38.9278 13.95 15.1
      vertex 39.1979 14.3021 0
      vertex 39.1979 14.3021 15.1
    endloop
  endfacet
  facet normal 0.793436 -0.608654 0
    outer loop
      vertex 39.1979 14.3021 0
      vertex 38.9278 13.95 15.1
      vertex 38.9278 13.95 0
    endloop
  endfacet
  facet normal 0.991453 0.130466 0
    outer loop
      vertex 38.7579 12.66 15.1
      vertex 38.7 13.1 0
      vertex 38.7 13.1 15.1
    endloop
  endfacet
  facet normal 0.991453 0.130466 0
    outer loop
      vertex 38.7 13.1 0
      vertex 38.7579 12.66 15.1
      vertex 38.7579 12.66 0
    endloop
  endfacet
  facet normal -0.130466 -0.991453 0
    outer loop
      vertex 40.4 14.8 0
      vertex 40.84 14.7421 15.1
      vertex 40.4 14.8 15.1
    endloop
  endfacet
  facet normal -0.130466 -0.991453 -0
    outer loop
      vertex 40.84 14.7421 15.1
      vertex 40.4 14.8 0
      vertex 40.84 14.7421 0
    endloop
  endfacet
  facet normal 0.923822 0.382823 0
    outer loop
      vertex 38.9278 12.25 15.1
      vertex 38.7579 12.66 0
      vertex 38.7579 12.66 15.1
    endloop
  endfacet
  facet normal 0.923822 0.382823 0
    outer loop
      vertex 38.7579 12.66 0
      vertex 38.9278 12.25 15.1
      vertex 38.9278 12.25 0
    endloop
  endfacet
  facet normal 1 0 0
    outer loop
      vertex 46.4 3 56.3
      vertex 46.4 0 56.3
      vertex 46.4 3 15.1
    endloop
  endfacet
  facet normal 1 0 0
    outer loop
      vertex 46.4 23.2 15.1
      vertex 46.4 26.2 56.3
      vertex 46.4 23.2 56.3
    endloop
  endfacet
  facet normal 1 0 0
    outer loop
      vertex 46.4 26.2 56.3
      vertex 46.4 23.2 15.1
      vertex 46.4 26.2 0
    endloop
  endfacet
  facet normal 1 -0 0
    outer loop
      vertex 46.4 3 15.1
      vertex 46.4 26.2 0
      vertex 46.4 23.2 15.1
    endloop
  endfacet
  facet normal 1 0 0
    outer loop
      vertex 46.4 3 15.1
      vertex 46.4 0 0
      vertex 46.4 26.2 0
    endloop
  endfacet
  facet normal 1 0 0
    outer loop
      vertex 46.4 0 0
      vertex 46.4 3 15.1
      vertex 46.4 0 56.3
    endloop
  endfacet
  facet normal 0 0 1
    outer loop
      vertex 46.4 26.2 56.3
      vertex 3 23.2 56.3
      vertex 46.4 23.2 56.3
    endloop
  endfacet
  facet normal 0 0 1
    outer loop
      vertex 3 23.2 56.3
      vertex 0 26.2 56.3
      vertex 3 3 56.3
    endloop
  endfacet
  facet normal -0 0 1
    outer loop
      vertex 0 26.2 56.3
      vertex 3 23.2 56.3
      vertex 46.4 26.2 56.3
    endloop
  endfacet
  facet normal -0 0 1
    outer loop
      vertex 3 3 56.3
      vertex 46.4 0 56.3
      vertex 46.4 3 56.3
    endloop
  endfacet
  facet normal 0 0 1
    outer loop
      vertex 3 3 56.3
      vertex 0 0 56.3
      vertex 46.4 0 56.3
    endloop
  endfacet
  facet normal 0 0 1
    outer loop
      vertex 0 0 56.3
      vertex 3 3 56.3
      vertex 0 26.2 56.3
    endloop
  endfacet
  facet normal 0 0 -1
    outer loop
      vertex 46.4 0 0
      vertex 42.1 13.1 0
      vertex 46.4 26.2 0
    endloop
  endfacet
  facet normal 0 0 -1
    outer loop
      vertex 46.4 0 0
      vertex 42.0421 12.66 0
      vertex 42.1 13.1 0
    endloop
  endfacet
  facet normal 0 0 -1
    outer loop
      vertex 46.4 0 0
      vertex 41.8722 12.25 0
      vertex 42.0421 12.66 0
    endloop
  endfacet
  facet normal 0 0 -1
    outer loop
      vertex 46.4 0 0
      vertex 41.6021 11.8979 0
      vertex 41.8722 12.25 0
    endloop
  endfacet
  facet normal 0 0 -1
    outer loop
      vertex 46.4 0 0
      vertex 41.25 11.6278 0
      vertex 41.6021 11.8979 0
    endloop
  endfacet
  facet normal 0 0 -1
    outer loop
      vertex 46.4 0 0
      vertex 40.84 11.4579 0
      vertex 41.25 11.6278 0
    endloop
  endfacet
  facet normal 0 0 -1
    outer loop
      vertex 46.4 0 0
      vertex 40.4 11.4 0
      vertex 40.84 11.4579 0
    endloop
  endfacet
  facet normal 0 0 -1
    outer loop
      vertex 46.4 0 0
      vertex 39.96 11.4579 0
      vertex 40.4 11.4 0
    endloop
  endfacet
  facet normal 0 0 -1
    outer loop
      vertex 46.4 0 0
      vertex 39.55 11.6278 0
      vertex 39.96 11.4579 0
    endloop
  endfacet
  facet normal 0 0 -1
    outer loop
      vertex 46.4 0 0
      vertex 39.1979 11.8979 0
      vertex 39.55 11.6278 0
    endloop
  endfacet
  facet normal 0 0 -1
    outer loop
      vertex 7.20208 11.8979 0
      vertex 39.1979 11.8979 0
      vertex 46.4 0 0
    endloop
  endfacet
  facet normal 0 0 -1
    outer loop
      vertex 38.7579 12.66 0
      vertex 7.7 13.1 0
      vertex 38.7 13.1 0
    endloop
  endfacet
  facet normal 0 0 -1
    outer loop
      vertex 7.64207 12.66 0
      vertex 38.7579 12.66 0
      vertex 38.9278 12.25 0
    endloop
  endfacet
  facet normal 0 0 -1
    outer loop
      vertex 39.1979 11.8979 0
      vertex 7.20208 11.8979 0
      vertex 38.9278 12.25 0
    endloop
  endfacet
  facet normal 0 0 -1
    outer loop
      vertex 38.7579 12.66 0
      vertex 7.64207 12.66 0
      vertex 7.7 13.1 0
    endloop
  endfacet
  facet normal 0 0 -1
    outer loop
      vertex 38.9278 12.25 0
      vertex 7.47224 12.25 0
      vertex 7.64207 12.66 0
    endloop
  endfacet
  facet normal -0 0 -1
    outer loop
      vertex 38.9278 12.25 0
      vertex 7.20208 11.8979 0
      vertex 7.47224 12.25 0
    endloop
  endfacet
  facet normal 0 0 -1
    outer loop
      vertex 0 0 0
      vertex 7.20208 11.8979 0
      vertex 46.4 0 0
    endloop
  endfacet
  facet normal 0 0 -1
    outer loop
      vertex 7.20208 11.8979 0
      vertex 0 0 0
      vertex 6.85 11.6278 0
    endloop
  endfacet
  facet normal 0 0 -1
    outer loop
      vertex 6.85 11.6278 0
      vertex 0 0 0
      vertex 6.43999 11.4579 0
    endloop
  endfacet
  facet normal 0 0 -1
    outer loop
      vertex 6.43999 11.4579 0
      vertex 0 0 0
      vertex 6 11.4 0
    endloop
  endfacet
  facet normal -0 0 -1
    outer loop
      vertex 4.35793 12.66 0
      vertex 0 0 0
      vertex 4.3 13.1 0
    endloop
  endfacet
  facet normal -0 0 -1
    outer loop
      vertex 4.52776 12.25 0
      vertex 0 0 0
      vertex 4.35793 12.66 0
    endloop
  endfacet
  facet normal -0 0 -1
    outer loop
      vertex 4.79792 11.8979 0
      vertex 0 0 0
      vertex 4.52776 12.25 0
    endloop
  endfacet
  facet normal -0 0 -1
    outer loop
      vertex 5.15 11.6278 0
      vertex 0 0 0
      vertex 4.79792 11.8979 0
    endloop
  endfacet
  facet normal -0 0 -1
    outer loop
      vertex 5.56001 11.4579 0
      vertex 0 0 0
      vertex 5.15 11.6278 0
    endloop
  endfacet
  facet normal -0 0 -1
    outer loop
      vertex 6 11.4 0
      vertex 0 0 0
      vertex 5.56001 11.4579 0
    endloop
  endfacet
  facet normal 0 0 -1
    outer loop
      vertex 42.0421 13.54 0
      vertex 46.4 26.2 0
      vertex 42.1 13.1 0
    endloop
  endfacet
  facet normal 0 0 -1
    outer loop
      vertex 41.8722 13.95 0
      vertex 46.4 26.2 0
      vertex 42.0421 13.54 0
    endloop
  endfacet
  facet normal 0 0 -1
    outer loop
      vertex 41.6021 14.3021 0
      vertex 46.4 26.2 0
      vertex 41.8722 13.95 0
    endloop
  endfacet
  facet normal 0 0 -1
    outer loop
      vertex 41.25 14.5722 0
      vertex 46.4 26.2 0
      vertex 41.6021 14.3021 0
    endloop
  endfacet
  facet normal 0 0 -1
    outer loop
      vertex 40.84 14.7421 0
      vertex 46.4 26.2 0
      vertex 41.25 14.5722 0
    endloop
  endfacet
  facet normal 0 0 -1
    outer loop
      vertex 40.4 14.8 0
      vertex 46.4 26.2 0
      vertex 40.84 14.7421 0
    endloop
  endfacet
  facet normal 0 0 -1
    outer loop
      vertex 39.96 14.7421 0
      vertex 46.4 26.2 0
      vertex 40.4 14.8 0
    endloop
  endfacet
  facet normal 0 0 -1
    outer loop
      vertex 39.55 14.5722 0
      vertex 46.4 26.2 0
      vertex 39.96 14.7421 0
    endloop
  endfacet
  facet normal 0 0 -1
    outer loop
      vertex 39.1979 14.3021 0
      vertex 46.4 26.2 0
      vertex 39.55 14.5722 0
    endloop
  endfacet
  facet normal 0 0 -1
    outer loop
      vertex 7.20208 14.3021 0
      vertex 39.1979 14.3021 0
      vertex 38.9278 13.95 0
    endloop
  endfacet
  facet normal 0 0 -1
    outer loop
      vertex 7.7 13.1 0
      vertex 38.7579 13.54 0
      vertex 38.7 13.1 0
    endloop
  endfacet
  facet normal 0 0 -1
    outer loop
      vertex 7.64207 13.54 0
      vertex 38.7579 13.54 0
      vertex 7.7 13.1 0
    endloop
  endfacet
  facet normal 0 0 -1
    outer loop
      vertex 38.7579 13.54 0
      vertex 7.64207 13.54 0
      vertex 38.9278 13.95 0
    endloop
  endfacet
  facet normal 0 0 -1
    outer loop
      vertex 7.47224 13.95 0
      vertex 38.9278 13.95 0
      vertex 7.64207 13.54 0
    endloop
  endfacet
  facet normal 0 0 -1
    outer loop
      vertex 7.20208 14.3021 0
      vertex 38.9278 13.95 0
      vertex 7.47224 13.95 0
    endloop
  endfacet
  facet normal 0 0 -1
    outer loop
      vertex 39.1979 14.3021 0
      vertex 7.20208 14.3021 0
      vertex 46.4 26.2 0
    endloop
  endfacet
  facet normal 0 0 -1
    outer loop
      vertex 0 26.2 0
      vertex 7.20208 14.3021 0
      vertex 6.85 14.5722 0
    endloop
  endfacet
  facet normal 0 0 -1
    outer loop
      vertex 0 26.2 0
      vertex 6.85 14.5722 0
      vertex 6.43999 14.7421 0
    endloop
  endfacet
  facet normal 0 0 -1
    outer loop
      vertex 0 26.2 0
      vertex 6.43999 14.7421 0
      vertex 6 14.8 0
    endloop
  endfacet
  facet normal 0 0 -1
    outer loop
      vertex 0 26.2 0
      vertex 6 14.8 0
      vertex 5.56001 14.7421 0
    endloop
  endfacet
  facet normal 0 0 -1
    outer loop
      vertex 0 26.2 0
      vertex 4.3 13.1 0
      vertex 0 0 0
    endloop
  endfacet
  facet normal 0 0 -1
    outer loop
      vertex 7.20208 14.3021 0
      vertex 0 26.2 0
      vertex 46.4 26.2 0
    endloop
  endfacet
  facet normal 0 0 -1
    outer loop
      vertex 5.15 14.5722 0
      vertex 0 26.2 0
      vertex 5.56001 14.7421 0
    endloop
  endfacet
  facet normal 0 0 -1
    outer loop
      vertex 4.79792 14.3021 0
      vertex 0 26.2 0
      vertex 5.15 14.5722 0
    endloop
  endfacet
  facet normal 0 0 -1
    outer loop
      vertex 4.52776 13.95 0
      vertex 0 26.2 0
      vertex 4.79792 14.3021 0
    endloop
  endfacet
  facet normal 0 0 -1
    outer loop
      vertex 4.35793 13.54 0
      vertex 0 26.2 0
      vertex 4.52776 13.95 0
    endloop
  endfacet
  facet normal 0 0 -1
    outer loop
      vertex 4.3 13.1 0
      vertex 0 26.2 0
      vertex 4.35793 13.54 0
    endloop
  endfacet
  facet normal -1 0 0
    outer loop
      vertex 0 0 0
      vertex 0 26.2 56.3
      vertex 0 26.2 0
    endloop
  endfacet
  facet normal -1 -0 0
    outer loop
      vertex 0 26.2 56.3
      vertex 0 0 0
      vertex 0 0 56.3
    endloop
  endfacet
  facet normal 0 1 0
    outer loop
      vertex 46.4 26.2 56.3
      vertex 12 26.2 51.8
      vertex 0 26.2 56.3
    endloop
  endfacet
  facet normal 0 1 0
    outer loop
      vertex 46.4 26.2 56.3
      vertex 12 26.2 48.8
      vertex 12 26.2 51.8
    endloop
  endfacet
  facet normal 0 1 0
    outer loop
      vertex 12 26.2 48.8
      vertex 12 26.2 22.6
      vertex 9 26.2 48.8
    endloop
  endfacet
  facet normal 0 1 0
    outer loop
      vertex 46.4 26.2 56.3
      vertex 12 26.2 22.6
      vertex 12 26.2 48.8
    endloop
  endfacet
  facet normal 0 1 -0
    outer loop
      vertex 46.4 26.2 0
      vertex 12 26.2 22.6
      vertex 46.4 26.2 56.3
    endloop
  endfacet
  facet normal 0 1 0
    outer loop
      vertex 0 26.2 0
      vertex 12 26.2 19.6
      vertex 46.4 26.2 0
    endloop
  endfacet
  facet normal 0 1 0
    outer loop
      vertex 12 26.2 22.6
      vertex 46.4 26.2 0
      vertex 12 26.2 19.6
    endloop
  endfacet
  facet normal 0 1 -0
    outer loop
      vertex 9 26.2 51.8
      vertex 0 26.2 56.3
      vertex 12 26.2 51.8
    endloop
  endfacet
  facet normal 0 1 -0
    outer loop
      vertex 9 26.2 48.8
      vertex 0 26.2 56.3
      vertex 9 26.2 51.8
    endloop
  endfacet
  facet normal 0 1 0
    outer loop
      vertex 9 26.2 22.6
      vertex 9 26.2 48.8
      vertex 12 26.2 22.6
    endloop
  endfacet
  facet normal 0 1 0
    outer loop
      vertex 9 26.2 48.8
      vertex 9 26.2 22.6
      vertex 0 26.2 56.3
    endloop
  endfacet
  facet normal 0 1 0
    outer loop
      vertex 0 26.2 0
      vertex 9 26.2 22.6
      vertex 9 26.2 19.6
    endloop
  endfacet
  facet normal 0 1 0
    outer loop
      vertex 9 26.2 22.6
      vertex 0 26.2 0
      vertex 0 26.2 56.3
    endloop
  endfacet
  facet normal 0 1 0
    outer loop
      vertex 12 26.2 19.6
      vertex 0 26.2 0
      vertex 9 26.2 19.6
    endloop
  endfacet
  facet normal 0 -1 0
    outer loop
      vertex 12 0 51.8
      vertex 0 0 56.3
      vertex 9 0 51.8
    endloop
  endfacet
  facet normal 0 -1 0
    outer loop
      vertex 0 0 56.3
      vertex 9 0 48.8
      vertex 9 0 51.8
    endloop
  endfacet
  facet normal 0 -1 0
    outer loop
      vertex 9 0 48.8
      vertex 9 0 22.6
      vertex 12 0 48.8
    endloop
  endfacet
  facet normal 0 -1 0
    outer loop
      vertex 0 0 56.3
      vertex 9 0 22.6
      vertex 9 0 48.8
    endloop
  endfacet
  facet normal 0 -1 0
    outer loop
      vertex 0 0 0
      vertex 9 0 22.6
      vertex 0 0 56.3
    endloop
  endfacet
  facet normal 0 -1 -0
    outer loop
      vertex 9 0 19.6
      vertex 0 0 0
      vertex 12 0 19.6
    endloop
  endfacet
  facet normal 0 -1 -0
    outer loop
      vertex 9 0 22.6
      vertex 0 0 0
      vertex 9 0 19.6
    endloop
  endfacet
  facet normal 0 -1 0
    outer loop
      vertex 0 0 56.3
      vertex 12 0 51.8
      vertex 46.4 0 56.3
    endloop
  endfacet
  facet normal 0 -1 0
    outer loop
      vertex 12 0 48.8
      vertex 46.4 0 56.3
      vertex 12 0 51.8
    endloop
  endfacet
  facet normal 0 -1 0
    outer loop
      vertex 12 0 22.6
      vertex 12 0 48.8
      vertex 9 0 22.6
    endloop
  endfacet
  facet normal 0 -1 0
    outer loop
      vertex 12 0 48.8
      vertex 12 0 22.6
      vertex 46.4 0 56.3
    endloop
  endfacet
  facet normal 0 -1 0
    outer loop
      vertex 46.4 0 0
      vertex 12 0 22.6
      vertex 12 0 19.6
    endloop
  endfacet
  facet normal 0 -1 0
    outer loop
      vertex 46.4 0 0
      vertex 12 0 19.6
      vertex 0 0 0
    endloop
  endfacet
  facet normal 0 -1 0
    outer loop
      vertex 12 0 22.6
      vertex 46.4 0 0
      vertex 46.4 0 56.3
    endloop
  endfacet
  facet normal 0 0 1
    outer loop
      vertex 46.4 23.2 15.1
      vertex 42.1 13.1 15.1
      vertex 46.4 3 15.1
    endloop
  endfacet
  facet normal 0 0 1
    outer loop
      vertex 46.4 23.2 15.1
      vertex 42.0421 13.54 15.1
      vertex 42.1 13.1 15.1
    endloop
  endfacet
  facet normal 0 0 1
    outer loop
      vertex 46.4 23.2 15.1
      vertex 41.8722 13.95 15.1
      vertex 42.0421 13.54 15.1
    endloop
  endfacet
  facet normal 0 0 1
    outer loop
      vertex 46.4 23.2 15.1
      vertex 41.6021 14.3021 15.1
      vertex 41.8722 13.95 15.1
    endloop
  endfacet
  facet normal 0 0 1
    outer loop
      vertex 46.4 23.2 15.1
      vertex 41.25 14.5722 15.1
      vertex 41.6021 14.3021 15.1
    endloop
  endfacet
  facet normal 0 0 1
    outer loop
      vertex 46.4 23.2 15.1
      vertex 40.84 14.7421 15.1
      vertex 41.25 14.5722 15.1
    endloop
  endfacet
  facet normal 0 0 1
    outer loop
      vertex 46.4 23.2 15.1
      vertex 40.4 14.8 15.1
      vertex 40.84 14.7421 15.1
    endloop
  endfacet
  facet normal 0 0 1
    outer loop
      vertex 46.4 23.2 15.1
      vertex 39.96 14.7421 15.1
      vertex 40.4 14.8 15.1
    endloop
  endfacet
  facet normal 0 0 1
    outer loop
      vertex 46.4 23.2 15.1
      vertex 39.55 14.5722 15.1
      vertex 39.96 14.7421 15.1
    endloop
  endfacet
  facet normal 0 0 1
    outer loop
      vertex 46.4 23.2 15.1
      vertex 39.1979 14.3021 15.1
      vertex 39.55 14.5722 15.1
    endloop
  endfacet
  facet normal 0 0 1
    outer loop
      vertex 38.7579 13.54 15.1
      vertex 7.7 13.1 15.1
      vertex 38.7 13.1 15.1
    endloop
  endfacet
  facet normal 0 0 1
    outer loop
      vertex 7.64207 13.54 15.1
      vertex 38.7579 13.54 15.1
      vertex 38.9278 13.95 15.1
    endloop
  endfacet
  facet normal 0 0 1
    outer loop
      vertex 7.47224 13.95 15.1
      vertex 38.9278 13.95 15.1
      vertex 39.1979 14.3021 15.1
    endloop
  endfacet
  facet normal -0 0 1
    outer loop
      vertex 3 23.2 15.1
      vertex 39.1979 14.3021 15.1
      vertex 46.4 23.2 15.1
    endloop
  endfacet
  facet normal 0 0 1
    outer loop
      vertex 38.7579 13.54 15.1
      vertex 7.64207 13.54 15.1
      vertex 7.7 13.1 15.1
    endloop
  endfacet
  facet normal 0 0 1
    outer loop
      vertex 38.9278 13.95 15.1
      vertex 7.47224 13.95 15.1
      vertex 7.64207 13.54 15.1
    endloop
  endfacet
  facet normal 0 0 1
    outer loop
      vertex 39.1979 14.3021 15.1
      vertex 7.20208 14.3021 15.1
      vertex 7.47224 13.95 15.1
    endloop
  endfacet
  facet normal 0 0 1
    outer loop
      vertex 39.1979 14.3021 15.1
      vertex 3 23.2 15.1
      vertex 7.20208 14.3021 15.1
    endloop
  endfacet
  facet normal 0 0 1
    outer loop
      vertex 7.20208 14.3021 15.1
      vertex 3 23.2 15.1
      vertex 6.85 14.5722 15.1
    endloop
  endfacet
  facet normal 0 0 1
    outer loop
      vertex 6.85 14.5722 15.1
      vertex 3 23.2 15.1
      vertex 6.43999 14.7421 15.1
    endloop
  endfacet
  facet normal 0 0 1
    outer loop
      vertex 6.43999 14.7421 15.1
      vertex 3 23.2 15.1
      vertex 6 14.8 15.1
    endloop
  endfacet
  facet normal 0 0 1
    outer loop
      vertex 4.35793 13.54 15.1
      vertex 3 23.2 15.1
      vertex 4.3 13.1 15.1
    endloop
  endfacet
  facet normal 0 0 1
    outer loop
      vertex 4.52776 13.95 15.1
      vertex 3 23.2 15.1
      vertex 4.35793 13.54 15.1
    endloop
  endfacet
  facet normal 0 0 1
    outer loop
      vertex 4.79792 14.3021 15.1
      vertex 3 23.2 15.1
      vertex 4.52776 13.95 15.1
    endloop
  endfacet
  facet normal 0 0 1
    outer loop
      vertex 5.15 14.5722 15.1
      vertex 3 23.2 15.1
      vertex 4.79792 14.3021 15.1
    endloop
  endfacet
  facet normal 0 0 1
    outer loop
      vertex 5.56001 14.7421 15.1
      vertex 3 23.2 15.1
      vertex 5.15 14.5722 15.1
    endloop
  endfacet
  facet normal 0 0 1
    outer loop
      vertex 6 14.8 15.1
      vertex 3 23.2 15.1
      vertex 5.56001 14.7421 15.1
    endloop
  endfacet
  facet normal -0 0 1
    outer loop
      vertex 42.0421 12.66 15.1
      vertex 46.4 3 15.1
      vertex 42.1 13.1 15.1
    endloop
  endfacet
  facet normal -0 0 1
    outer loop
      vertex 41.8722 12.25 15.1
      vertex 46.4 3 15.1
      vertex 42.0421 12.66 15.1
    endloop
  endfacet
  facet normal -0 0 1
    outer loop
      vertex 41.6021 11.8979 15.1
      vertex 46.4 3 15.1
      vertex 41.8722 12.25 15.1
    endloop
  endfacet
  facet normal -0 0 1
    outer loop
      vertex 41.25 11.6278 15.1
      vertex 46.4 3 15.1
      vertex 41.6021 11.8979 15.1
    endloop
  endfacet
  facet normal -0 0 1
    outer loop
      vertex 40.84 11.4579 15.1
      vertex 46.4 3 15.1
      vertex 41.25 11.6278 15.1
    endloop
  endfacet
  facet normal -0 0 1
    outer loop
      vertex 40.4 11.4 15.1
      vertex 46.4 3 15.1
      vertex 40.84 11.4579 15.1
    endloop
  endfacet
  facet normal 0 0 1
    outer loop
      vertex 39.96 11.4579 15.1
      vertex 46.4 3 15.1
      vertex 40.4 11.4 15.1
    endloop
  endfacet
  facet normal 0 0 1
    outer loop
      vertex 39.55 11.6278 15.1
      vertex 46.4 3 15.1
      vertex 39.96 11.4579 15.1
    endloop
  endfacet
  facet normal 0 0 1
    outer loop
      vertex 39.1979 11.8979 15.1
      vertex 46.4 3 15.1
      vertex 39.55 11.6278 15.1
    endloop
  endfacet
  facet normal -0 0 1
    outer loop
      vertex 7.7 13.1 15.1
      vertex 38.7579 12.66 15.1
      vertex 38.7 13.1 15.1
    endloop
  endfacet
  facet normal 0 0 1
    outer loop
      vertex 7.64207 12.66 15.1
      vertex 38.7579 12.66 15.1
      vertex 7.7 13.1 15.1
    endloop
  endfacet
  facet normal 0 0 1
    outer loop
      vertex 38.7579 12.66 15.1
      vertex 7.64207 12.66 15.1
      vertex 38.9278 12.25 15.1
    endloop
  endfacet
  facet normal 0 0 1
    outer loop
      vertex 7.47224 12.25 15.1
      vertex 38.9278 12.25 15.1
      vertex 7.64207 12.66 15.1
    endloop
  endfacet
  facet normal 0 0 1
    outer loop
      vertex 38.9278 12.25 15.1
      vertex 7.47224 12.25 15.1
      vertex 39.1979 11.8979 15.1
    endloop
  endfacet
  facet normal 0 0 1
    outer loop
      vertex 7.20208 11.8979 15.1
      vertex 39.1979 11.8979 15.1
      vertex 7.47224 12.25 15.1
    endloop
  endfacet
  facet normal 0 0 1
    outer loop
      vertex 3 3 15.1
      vertex 39.1979 11.8979 15.1
      vertex 7.20208 11.8979 15.1
    endloop
  endfacet
  facet normal 0 0 1
    outer loop
      vertex 3 3 15.1
      vertex 7.20208 11.8979 15.1
      vertex 6.85 11.6278 15.1
    endloop
  endfacet
  facet normal 0 0 1
    outer loop
      vertex 3 3 15.1
      vertex 6.85 11.6278 15.1
      vertex 6.43999 11.4579 15.1
    endloop
  endfacet
  facet normal 0 0 1
    outer loop
      vertex 3 3 15.1
      vertex 6.43999 11.4579 15.1
      vertex 6 11.4 15.1
    endloop
  endfacet
  facet normal 0 0 1
    outer loop
      vertex 3 3 15.1
      vertex 6 11.4 15.1
      vertex 5.56001 11.4579 15.1
    endloop
  endfacet
  facet normal 0 0 1
    outer loop
      vertex 39.1979 11.8979 15.1
      vertex 3 3 15.1
      vertex 46.4 3 15.1
    endloop
  endfacet
  facet normal 0 0 1
    outer loop
      vertex 5.15 11.6278 15.1
      vertex 3 3 15.1
      vertex 5.56001 11.4579 15.1
    endloop
  endfacet
  facet normal 0 0 1
    outer loop
      vertex 4.79792 11.8979 15.1
      vertex 3 3 15.1
      vertex 5.15 11.6278 15.1
    endloop
  endfacet
  facet normal 0 0 1
    outer loop
      vertex 4.52776 12.25 15.1
      vertex 3 3 15.1
      vertex 4.79792 11.8979 15.1
    endloop
  endfacet
  facet normal 0 0 1
    outer loop
      vertex 4.35793 12.66 15.1
      vertex 3 3 15.1
      vertex 4.52776 12.25 15.1
    endloop
  endfacet
  facet normal 0 0 1
    outer loop
      vertex 4.3 13.1 15.1
      vertex 3 3 15.1
      vertex 4.35793 12.66 15.1
    endloop
  endfacet
  facet normal 0 0 1
    outer loop
      vertex 3 3 15.1
      vertex 4.3 13.1 15.1
      vertex 3 23.2 15.1
    endloop
  endfacet
  facet normal 1 -0 0
    outer loop
      vertex 3 3 56.3
      vertex 3 23.2 15.1
      vertex 3 23.2 56.3
    endloop
  endfacet
  facet normal 1 0 0
    outer loop
      vertex 3 23.2 15.1
      vertex 3 3 56.3
      vertex 3 3 15.1
    endloop
  endfacet
  facet normal 0 -1 0
    outer loop
      vertex 12 23.2 51.8
      vertex 3 23.2 56.3
      vertex 9 23.2 51.8
    endloop
  endfacet
  facet normal 0 -1 0
    outer loop
      vertex 3 23.2 56.3
      vertex 9 23.2 48.8
      vertex 9 23.2 51.8
    endloop
  endfacet
  facet normal 0 -1 0
    outer loop
      vertex 9 23.2 48.8
      vertex 9 23.2 22.6
      vertex 12 23.2 48.8
    endloop
  endfacet
  facet normal 0 -1 0
    outer loop
      vertex 3 23.2 56.3
      vertex 9 23.2 22.6
      vertex 9 23.2 48.8
    endloop
  endfacet
  facet normal 0 -1 0
    outer loop
      vertex 3 23.2 15.1
      vertex 9 23.2 22.6
      vertex 3 23.2 56.3
    endloop
  endfacet
  facet normal 0 -1 -0
    outer loop
      vertex 9 23.2 19.6
      vertex 3 23.2 15.1
      vertex 12 23.2 19.6
    endloop
  endfacet
  facet normal 0 -1 -0
    outer loop
      vertex 9 23.2 22.6
      vertex 3 23.2 15.1
      vertex 9 23.2 19.6
    endloop
  endfacet
  facet normal 0 -1 0
    outer loop
      vertex 3 23.2 56.3
      vertex 12 23.2 51.8
      vertex 46.4 23.2 56.3
    endloop
  endfacet
  facet normal 0 -1 0
    outer loop
      vertex 12 23.2 48.8
      vertex 46.4 23.2 56.3
      vertex 12 23.2 51.8
    endloop
  endfacet
  facet normal 0 -1 0
    outer loop
      vertex 12 23.2 22.6
      vertex 12 23.2 48.8
      vertex 9 23.2 22.6
    endloop
  endfacet
  facet normal 0 -1 0
    outer loop
      vertex 12 23.2 48.8
      vertex 12 23.2 22.6
      vertex 46.4 23.2 56.3
    endloop
  endfacet
  facet normal 0 -1 0
    outer loop
      vertex 46.4 23.2 15.1
      vertex 12 23.2 22.6
      vertex 12 23.2 19.6
    endloop
  endfacet
  facet normal 0 -1 0
    outer loop
      vertex 12 23.2 22.6
      vertex 46.4 23.2 15.1
      vertex 46.4 23.2 56.3
    endloop
  endfacet
  facet normal 0 -1 0
    outer loop
      vertex 46.4 23.2 15.1
      vertex 12 23.2 19.6
      vertex 3 23.2 15.1
    endloop
  endfacet
  facet normal 0 1 0
    outer loop
      vertex 46.4 3 56.3
      vertex 12 3 51.8
      vertex 3 3 56.3
    endloop
  endfacet
  facet normal 0 1 0
    outer loop
      vertex 46.4 3 56.3
      vertex 12 3 48.8
      vertex 12 3 51.8
    endloop
  endfacet
  facet normal 0 1 0
    outer loop
      vertex 12 3 48.8
      vertex 12 3 22.6
      vertex 9 3 48.8
    endloop
  endfacet
  facet normal 0 1 0
    outer loop
      vertex 46.4 3 56.3
      vertex 12 3 22.6
      vertex 12 3 48.8
    endloop
  endfacet
  facet normal 0 1 -0
    outer loop
      vertex 46.4 3 15.1
      vertex 12 3 22.6
      vertex 46.4 3 56.3
    endloop
  endfacet
  facet normal 0 1 0
    outer loop
      vertex 3 3 15.1
      vertex 12 3 19.6
      vertex 46.4 3 15.1
    endloop
  endfacet
  facet normal 0 1 0
    outer loop
      vertex 12 3 22.6
      vertex 46.4 3 15.1
      vertex 12 3 19.6
    endloop
  endfacet
  facet normal 0 1 -0
    outer loop
      vertex 9 3 51.8
      vertex 3 3 56.3
      vertex 12 3 51.8
    endloop
  endfacet
  facet normal 0 1 -0
    outer loop
      vertex 9 3 48.8
      vertex 3 3 56.3
      vertex 9 3 51.8
    endloop
  endfacet
  facet normal 0 1 0
    outer loop
      vertex 9 3 22.6
      vertex 9 3 48.8
      vertex 12 3 22.6
    endloop
  endfacet
  facet normal 0 1 0
    outer loop
      vertex 9 3 48.8
      vertex 9 3 22.6
      vertex 3 3 56.3
    endloop
  endfacet
  facet normal 0 1 0
    outer loop
      vertex 3 3 15.1
      vertex 9 3 22.6
      vertex 9 3 19.6
    endloop
  endfacet
  facet normal 0 1 0
    outer loop
      vertex 9 3 22.6
      vertex 3 3 15.1
      vertex 3 3 56.3
    endloop
  endfacet
  facet normal 0 1 0
    outer loop
      vertex 12 3 19.6
      vertex 3 3 15.1
      vertex 9 3 19.6
    endloop
  endfacet
endsolid OpenSCAD_Model
